<?xml version="1.0" encoding="utf-8"?>
<!-- Generator: Adobe Illustrator 27.5.0, SVG Export Plug-In . SVG Version: 6.00 Build 0)  -->
<svg version="1.1" id="Layer_1" xmlns="http://www.w3.org/2000/svg" xmlns:xlink="http://www.w3.org/1999/xlink" x="0px" y="0px"
	 viewBox="0 0 370.5 208.288" style="enable-background:new 0 0 370.5 208.288;" xml:space="preserve">
<g>
	<path style="fill:#231F20;" d="M269.652,5.407l-17.923,26.295c-0.459,0.654-1.464-0.01-1.016-0.693
		c-0.003,0.003,18.729-25.746,18.731-25.749c0.041-0.057,0.121-0.07,0.178-0.028C269.678,5.272,269.691,5.35,269.652,5.407
		L269.652,5.407z"/>
	<path style="fill:#BE1E2D;" d="M318.161,188.076H39.276c0,0-29.23-2.567-29.23-34.305s7.935-47.374,39.206-67.677
		c31.271-20.303,92.414-57.409,168.025-57.409s111.55,9.335,114.351,13.302c2.8,3.967-2.8,7.468-2.8,7.468
		s23.803,39.091,23.803,66.219c0,0,15.51,8.944,2.728,54.185c-2.142,7.582-8.059,13.545-15.645,15.672
		C334.563,186.976,327.556,188.076,318.161,188.076z"/>
	<path style="opacity:0.6;fill:#BE1E2D;" d="M25.436,106.229c5.466-1.597,10.965-3.083,16.483-4.484
		c11.194-2.844,22.478-5.297,33.826-7.443c22.509-4.256,45.205-7.483,67.977-9.949c22.946-2.485,45.971-4.196,69.018-5.387
		c22.596-1.167,45.305-1.534,67.924-0.915c21.72,0.594,43.439,2.283,64.875,5.904c-7.016-18.575-16.712-34.5-16.712-34.5
		s5.601-3.5,2.8-7.468c-2.8-3.967-38.739-13.302-114.351-13.302S80.523,65.79,49.252,86.093
		c-10.913,7.086-18.982,13.603-24.865,20.435C24.737,106.429,25.087,106.331,25.436,106.229z"/>
	<path style="opacity:0.6;fill:#BE1E2D;" d="M217.277,34.213c73.481,0,109.489,8.815,114.031,12.954
		c1.033-1.367,1.706-3.216,0.32-5.18c-2.8-3.967-38.739-13.302-114.351-13.302S80.523,65.79,49.252,86.093
		c-10.913,7.086-18.982,13.603-24.865,20.435c0.35-0.099,0.701-0.197,1.049-0.299c2.211-0.646,4.428-1.269,6.649-1.881
		c4.736-4.164,10.405-8.336,17.167-12.727C80.523,71.319,141.666,34.213,217.277,34.213z"/>
	<path style="opacity:0.6;fill:#BE1E2D;" d="M352.63,115.674c0-0.582-0.015-1.172-0.036-1.765
		c-9.486,1.136-18.971,2.287-28.45,3.481c-28.59,3.601-57.143,7.51-85.607,12c-28.035,4.421-55.994,9.393-83.865,14.749
		c-27.695,5.321-55.296,11.167-82.68,17.917c-13.588,3.349-27.158,6.824-40.544,10.916c-4.508,1.378-9.007,2.788-13.522,4.145
		c8.657,9.843,21.35,10.96,21.35,10.96h278.885c9.395,0,16.402-1.1,21.553-2.544c7.586-2.127,13.503-8.09,15.645-15.672
		C368.141,124.618,352.63,115.674,352.63,115.674z"/>
	<g>
		<path style="fill:#BE1E2D;" d="M290.806,62.194c4.574,13.437,4.519,42.429,4.519,42.429c-6.086,1.847-11.741,4.772-16.765,8.708
			c-7.137,5.591-12.611,12.375-15.832,19.62c-2.066,4.649-3.245,9.43-4.386,14.054c-1.029,4.176-2.002,8.121-3.559,11.793
			c-2.34,5.517-6.537,9.807-12.476,12.752c-7.819,3.877-17.11,3.451-25.631,3.649c-19.552,0.453-39.108,0.44-58.663,0.41
			c-8.227-0.012-16.678,0.492-24.772-1.276c0,0-14.356-7.989-16.291-40.849c-1.935-32.861,1.15-55.065,8.401-64.25
			C132.603,60.049,290.806,62.194,290.806,62.194z"/>
		<path style="opacity:0.6;fill:#BE1E2D;" d="M133.242,174.333c8.093,1.768,16.544,1.264,24.772,1.276
			c19.556,0.029,39.112,0.043,58.663-0.41c8.521-0.197,17.812,0.228,25.631-3.649c5.939-2.945,10.136-7.235,12.476-12.752
			c1.557-3.672,2.53-7.617,3.559-11.793c1.141-4.624,2.319-9.405,4.386-14.054c1.204-2.709,2.724-5.353,4.528-7.895
			c-9.581,1.388-19.155,2.826-28.719,4.334c-28.035,4.421-55.994,9.393-83.865,14.749c-11.709,2.25-23.399,4.601-35.065,7.066
			C124.335,169.372,133.242,174.333,133.242,174.333z"/>
		<path style="fill:#231F20;" d="M290.881,62.091c2.742,6.649,3.219,14.031,3.908,21.122c0.559,7.122,0.777,14.267,0.664,21.409
			c-0.001,0.058-0.039,0.105-0.091,0.122c-3.876,1.492-7.596,3.281-11.087,5.44c-6.952,4.308-13.114,10.071-17.596,16.932
			c-4.646,6.913-6.525,15.051-8.525,23.05c-1.079,4.047-2.226,8.137-4.389,11.784c-4.408,7.338-12.552,11.714-20.872,12.848
			c-4.151,0.625-8.336,0.681-12.487,0.736c-12.456,0.259-24.927,0.486-37.388,0.524c-8.672-0.013-28.975,0.195-37.403,0.22
			c-4.184-0.064-8.405-0.349-12.552-1.224c-2.04-1.143-3.576-2.952-5.076-4.701c-9.476-12.299-11.163-28.493-11.67-43.513
			c-0.422-15.133-0.464-30.537,3.25-45.31c0.183-0.687,0.747-2.461,0.934-3.127c0.376-0.982,0.733-2.097,1.147-3.059
			c0.5-1.186,1.29-2.81,1.946-3.904c0,0,0.269-0.475,0.269-0.475l0.314-0.449l0.629-0.897c0.2-0.284,0.435-0.661,0.719-0.872
			c1.494-1.112,3.384-1.488,5.13-1.929c1.416-0.323,2.842-0.576,4.272-0.802c5.723-0.882,11.488-1.376,17.251-1.804
			c40.265-2.587,80.943-2.325,121.295-2.293C278.307,61.993,286.059,61.948,290.881,62.091L290.881,62.091z M290.731,62.297
			c-34.396-0.311-69.577-0.389-103.908,0.642c-18.705,0.806-37.621,0.869-56.069,4.305c-1.395,0.326-2.798,0.695-4.068,1.303
			c-0.462,0.239-0.903,0.483-1.21,0.903c-0.342,0.491-0.883,1.267-1.226,1.757c-1.154,1.944-2.204,4.191-2.93,6.333
			c-0.207,0.502-0.53,1.525-0.677,2.046l-0.611,2.069l-0.502,2.1c-3.13,14.096-3.108,28.691-2.594,43.061
			c0.227,5.653,0.648,11.606,1.564,17.206c1.768,9.762,4.935,19.771,11.924,27.056c0.967,0.953,2.028,1.909,3.18,2.605l-0.203-0.077
			c3.992,0.904,8.113,1.249,12.243,1.374c8.246,0.124,28.808,0.089,37.37,0.165c12.007,0.033,25.309-0.195,37.38-0.407
			c8.173-0.106,16.764-0.372,23.902-4.788c5.34-3.147,9.242-8.211,11.031-14.126c2.597-7.888,3.567-16.324,7.148-23.921
			c6.045-12.721,19.199-24.644,32.723-27.283C294.771,90.425,293.944,76.175,290.731,62.297L290.731,62.297z"/>
		<path style="fill:#231F20;" d="M207.407,62.324c-1.316,15.024-1.87,30.114-1.398,45.186c0.638,17.541,1.707,35.206,1.533,52.786
			c0.07,4.313-0.036,7.56-3.337,10.778c-2.727,2.652-6.43,4.664-10.303,4.595c-0.156-0.026-0.165-0.23-0.002-0.255
			c2.475-0.194,4.778-1.296,6.818-2.649c2.451-1.689,4.768-3.99,5.489-6.948c0.41-1.809,0.35-3.652,0.369-5.524l0.03-7.54
			c0.011-15.074-0.901-30.149-1.23-45.225C205.024,92.435,205.834,77.327,207.407,62.324L207.407,62.324z"/>
	</g>
	<g>
		<path style="fill:#E6E7E8;" d="M42.448,99.826c0,0,226.979-16.512,230.933-16.744c3.954-0.233,26.512,0.465,20.698-23.024
			c-2.847-11.502-10.794-17.212-22.135-19.313c-11.871-2.199-24.219-1.89-36.246-1.996c-14.386-0.128-28.941-0.373-43.28,0.891
			c-14.004,1.235-27.877,3.792-41.455,7.421c-7.492,2.002-14.891,4.336-22.196,6.937c-24.163,8.631-47.388,20.103-69.008,33.914
			C53.854,91.684,48.069,95.644,42.448,99.826z"/>
		<linearGradient id="SVGID_1_" gradientUnits="userSpaceOnUse" x1="42.4476" y1="69.2338" x2="295.0304" y2="69.2338">
			<stop  offset="0" style="stop-color:#FFFFFF"/>
			<stop  offset="0.9973" style="stop-color:#D1D3D4"/>
		</linearGradient>
		<path style="fill:url(#SVGID_1_);" d="M42.448,99.826c0,0,226.979-16.512,230.933-16.744c3.954-0.233,26.512,0.465,20.698-23.024
			c-2.847-11.502-10.794-17.212-22.135-19.313c-11.871-2.199-24.219-1.89-36.246-1.996c-14.386-0.128-28.941-0.373-43.28,0.891
			c-14.004,1.235-27.877,3.792-41.455,7.421c-7.492,2.002-14.891,4.336-22.196,6.937c-24.163,8.631-47.388,20.103-69.008,33.914
			C53.854,91.684,48.069,95.644,42.448,99.826z"/>
		<path style="opacity:0.6;fill:#E6E7E8;" d="M286.711,63.343c-12.028,0.312-24.053-0.276-36.075-0.591
			c-24.56-0.644-49.169,0.156-73.67,1.898c-12.333,0.877-24.631,2.105-36.942,3.234c-12.382,1.135-24.771,2.252-37.093,3.937
			c-7.554,1.033-15.089,2.287-22.545,3.896c-7.018,3.829-13.9,7.899-20.627,12.196c-5.904,3.772-11.69,7.732-17.311,11.914
			c0,0,226.979-16.512,230.933-16.744c3.782-0.223,24.581,0.403,21.296-20.096C292.024,63.158,289.367,63.275,286.711,63.343z"/>
		<path style="fill:#231F20;" d="M42.627,99.76c62.595-4.825,175.453-13.36,236.941-17.88c2.737-0.398,5.439-1.123,7.827-2.418
			c3.625-1.865,6.178-5.447,6.705-9.497c0.876-6.448-1.248-14.355-5.274-19.472c-5.247-6.794-14.026-9.04-22.191-10.03
			c-11.19-1.471-22.55-1.137-33.872-1.349c-11.322-0.146-22.651-0.326-33.948,0.348c-33.967,1.932-67.033,11.945-97.831,26.106
			c-19.907,9.188-38.985,20.244-56.714,33.153c0,0-0.825,0.602-0.825,0.602C43.209,99.485,42.934,99.591,42.627,99.76L42.627,99.76z
			 M42.268,99.893c0.795-0.89,2.516-1.98,3.497-2.728c17.283-12.359,35.8-22.981,55.062-31.937
			c30.809-14.239,63.93-24.336,97.954-26.336c11.322-0.665,22.665-0.627,33.99-0.561c14.108,0.198,28.52-0.657,42.428,2.574
			c5.573,1.405,11.007,4.195,14.627,8.79c4.928,6.07,7.838,17.458,4.389,24.734c-3.28,6.99-11.674,9.027-18.731,9.311
			C215.995,87.846,102.828,95.798,42.268,99.893L42.268,99.893z"/>
		<g>
			<path style="fill:#B3E1F7;" d="M134.167,58.057c0.875-0.874-2.341,0.809-3.513,1.227c-23.567,8.419-46.403,19.642-67.875,33.358
				c-0.046,0.03-0.093,0.059-0.139,0.089c9.533-0.693,21.775-1.583,35.552-2.585c2.479-0.18,4.815-1.239,6.582-2.986
				C111.88,80.133,130.606,61.614,134.167,58.057z"/>
			
				<linearGradient id="SVGID_00000013156667883069310120000000280374024330286486_" gradientUnits="userSpaceOnUse" x1="91.2161" y1="67.5864" x2="114.4829" y2="92.2423">
				<stop  offset="0" style="stop-color:#FFFFFF"/>
				<stop  offset="1" style="stop-color:#77C6E5"/>
			</linearGradient>
			<path style="fill:url(#SVGID_00000013156667883069310120000000280374024330286486_);" d="M134.167,58.057
				c0.875-0.874-2.341,0.809-3.513,1.227c-23.567,8.419-46.403,19.642-67.875,33.358c-0.046,0.03-0.093,0.059-0.139,0.089
				c9.533-0.693,21.775-1.583,35.552-2.585c2.479-0.18,4.815-1.239,6.582-2.986C111.88,80.133,130.606,61.614,134.167,58.057z"/>
			<path style="fill:#B3E1F7;" d="M122.586,88.373c23.288-1.692,48.652-3.535,71.808-5.215c1.54-0.112,2.798-1.263,3.044-2.788
				c1.056-6.558,3.837-23.823,5.112-31.736c0.34-2.111-1.368-3.98-3.502-3.853c-2.031,0.121-4.084,0.269-6.136,0.45
				c-13.232,1.167-26.858,3.607-40.5,7.252c-1.649,0.441-3.312,0.903-4.986,1.387c-2.303,0.665-4.389,1.928-6.055,3.651
				c-4.721,4.881-14.907,15.763-21.755,25.615C118.011,85.442,119.784,88.576,122.586,88.373z"/>
			
				<linearGradient id="SVGID_00000041297309180010184030000013844491718644223371_" gradientUnits="userSpaceOnUse" x1="140.9066" y1="61.5939" x2="201.8517" y2="76.8736">
				<stop  offset="0" style="stop-color:#FFFFFF"/>
				<stop  offset="1" style="stop-color:#77C6E5"/>
			</linearGradient>
			<path style="fill:url(#SVGID_00000041297309180010184030000013844491718644223371_);" d="M122.586,88.373
				c23.288-1.692,48.652-3.535,71.808-5.215c1.54-0.112,2.798-1.263,3.044-2.788c1.056-6.558,3.837-23.823,5.112-31.736
				c0.34-2.111-1.368-3.98-3.502-3.853c-2.031,0.121-4.084,0.269-6.136,0.45c-13.232,1.167-26.858,3.607-40.5,7.252
				c-1.649,0.441-3.312,0.903-4.986,1.387c-2.303,0.665-4.389,1.928-6.055,3.651c-4.721,4.881-14.907,15.763-21.755,25.615
				C118.011,85.442,119.784,88.576,122.586,88.373z"/>
			<path style="fill:#B3E1F7;" d="M217.603,77.002c-0.177,2.37,1.794,4.344,4.164,4.172c28.995-2.101,50.081-3.623,51.285-3.694
				c0.269-0.016,0.612-0.029,1.019-0.043c2.895-0.102,10.584-0.372,13.727-4.536c1.837-2.435,2.117-6.302,0.832-11.493
				c-2.128-8.598-7.59-13.269-17.71-15.144c-9.682-1.794-20.054-1.834-30.084-1.874c-1.734-0.007-3.465-0.014-5.189-0.029
				l-3.094-0.029c-2.915-0.027-5.9-0.056-8.878-0.07c-2.045-0.01-3.748,1.565-3.9,3.604L217.603,77.002z"/>
			
				<linearGradient id="SVGID_00000062894613643700946140000012576831028620155299_" gradientUnits="userSpaceOnUse" x1="222.5111" y1="62.7232" x2="286.9318" y2="62.7232">
				<stop  offset="0" style="stop-color:#FFFFFF"/>
				<stop  offset="1" style="stop-color:#77C6E5"/>
			</linearGradient>
			<path style="fill:url(#SVGID_00000062894613643700946140000012576831028620155299_);" d="M217.603,77.002
				c-0.177,2.37,1.794,4.344,4.164,4.172c28.995-2.101,50.081-3.623,51.285-3.694c0.269-0.016,0.612-0.029,1.019-0.043
				c2.895-0.102,10.584-0.372,13.727-4.536c1.837-2.435,2.117-6.302,0.832-11.493c-2.128-8.598-7.59-13.269-17.71-15.144
				c-9.682-1.794-20.054-1.834-30.084-1.874c-1.734-0.007-3.465-0.014-5.189-0.029l-3.094-0.029c-2.915-0.027-5.9-0.056-8.878-0.07
				c-2.045-0.01-3.748,1.565-3.9,3.604L217.603,77.002z"/>
			<path style="fill:#B3E1F7;" d="M132.701,59.516c0.617-0.613,1.117-1.111,1.466-1.46c0.875-0.874-2.341,0.809-3.513,1.227
				c-23.567,8.419-46.403,19.642-67.875,33.358c-0.046,0.03-0.093,0.059-0.139,0.089c0.49-0.036,0.993-0.072,1.497-0.109
				c20.921-13.049,43.068-23.792,65.892-31.945C130.651,60.456,131.833,59.887,132.701,59.516z"/>
			<path style="fill:#B3E1F7;" d="M218.527,78.711l2.211-29.654c0.155-2.075,1.888-3.678,3.97-3.668
				c3.031,0.014,6.069,0.043,9.036,0.071l3.149,0.029c1.755,0.016,3.516,0.023,5.282,0.029c10.209,0.04,20.765,0.081,30.62,1.907
				c3.277,0.607,6.07,1.505,8.43,2.725c-2.694-1.832-6.09-3.106-10.304-3.887c-9.682-1.794-20.054-1.834-30.084-1.874
				c-1.734-0.007-3.465-0.014-5.189-0.029l-3.094-0.029c-2.915-0.027-5.9-0.056-8.878-0.07c-2.045-0.01-3.748,1.565-3.9,3.604
				l-2.173,29.135c-0.084,1.129,0.322,2.165,1.024,2.925C218.534,79.539,218.495,79.132,218.527,78.711z"/>
			<path style="fill:#B3E1F7;" d="M147.099,55.167c1.704-0.492,3.396-0.963,5.075-1.411c13.885-3.71,27.754-6.194,41.221-7.382
				c2.089-0.184,4.178-0.335,6.245-0.458c1.13-0.067,2.139,0.418,2.801,1.198c-0.44-1.405-1.798-2.428-3.395-2.333
				c-2.031,0.121-4.084,0.269-6.136,0.45c-13.232,1.167-26.858,3.607-40.5,7.252c-1.649,0.441-3.312,0.903-4.986,1.387
				c-2.303,0.665-4.389,1.928-6.055,3.651c-4.721,4.881-14.907,15.763-21.755,25.615c-0.324,0.466-0.504,0.965-0.571,1.463
				c6.966-9.933,17.145-20.807,21.893-25.716C142.632,57.129,144.755,55.843,147.099,55.167z"/>
			<path style="fill:#D1D3D4;" d="M62.641,92.73c9.533-0.693,21.775-1.583,35.552-2.585c2.479-0.18,4.815-1.239,6.582-2.986
				c3.91-3.866,11.335-11.209,17.819-17.627c-6.566,0.662-13.124,1.394-19.663,2.288c-1.198,0.164-2.395,0.335-3.592,0.511
				C86.81,78.315,74.588,85.099,62.78,92.642C62.733,92.671,62.687,92.701,62.641,92.73z"/>
			<path style="fill:#D1D3D4;" d="M221.767,81.173c28.995-2.101,50.081-3.623,51.285-3.694c0.269-0.016,0.612-0.029,1.019-0.043
				c2.895-0.102,10.584-0.372,13.727-4.536c1.611-2.135,2.025-5.373,1.235-9.639c-0.774,0.028-1.548,0.062-2.323,0.082
				c-12.028,0.312-24.053-0.276-36.075-0.591c-10.65-0.279-21.31-0.286-31.966-0.063l-1.067,14.313
				C217.426,79.371,219.396,81.345,221.767,81.173z"/>
			<path style="fill:#D1D3D4;" d="M122.586,88.373c23.288-1.692,48.652-3.535,71.808-5.215c1.54-0.112,2.798-1.263,3.044-2.788
				c0.577-3.584,1.67-10.366,2.75-17.072c-7.748,0.346-15.49,0.802-23.222,1.351c-12.333,0.877-24.631,2.105-36.942,3.234
				c-2.982,0.273-5.965,0.546-8.948,0.826c-3.931,4.502-8.099,9.588-11.462,14.426C118.011,85.442,119.784,88.576,122.586,88.373z"
				/>
		</g>
		<g>
			<path style="fill:#231F20;" d="M133.921,57.81c0.026-0.028,0.06-0.062,0.069-0.076c0.014-0.015-0.005,0-0.01,0.029
				c-0.015,0.084-0.028,0.099,0.011,0.21c0.032,0.099,0.115,0.14,0.188,0.174c0.127,0.023,0.047,0.004,0.026,0.019
				c-1.405,0.474-2.748,1.247-4.165,1.698c-11.004,3.929-21.795,8.448-32.324,13.514c-12.035,5.79-23.729,12.294-35.005,19.458
				c-0.005,0.008-0.078-0.235-0.08-0.233c9.672-0.957,21.78-1.979,31.531-2.732c1.511-0.147,3.71-0.216,5.177-0.484
				c1.622-0.336,3.164-1.062,4.431-2.132L133.921,57.81L133.921,57.81z M134.414,58.304c-4.963,4.989-17.529,17.622-22.323,22.433
				c-1.226,1.22-4.416,4.403-5.609,5.58c-1.828,1.994-4.15,3.799-6.912,4.244c-0.798,0.19-1.88,0.188-2.695,0.264
				c-10.743,0.717-23.501,1.548-34.226,2.032c-0.126,0.015-0.191-0.175-0.076-0.236C73.819,85.39,85.489,78.815,97.509,72.95
				c11.226-5.586,22.901-10.182,34.596-14.66c0.64-0.279,1.261-0.605,1.943-0.801c0.079-0.007,0.105-0.05,0.335-0.008
				c0.037,0.011,0.073,0.027,0.105,0.045C134.789,57.757,134.651,58.094,134.414,58.304L134.414,58.304z"/>
			<path style="fill:#231F20;" d="M218.049,77.035c-0.196,2.085,1.672,4.056,3.8,3.781c0.429-0.025,1.799-0.142,2.258-0.171
				c9.355-0.71,29.574-2.243,39.14-2.968c3.439-0.241,8.646-0.714,12.052-0.842c9.554-0.633,15.348-3.185,13.105-13.968
				c-0.738-3.852-2.278-7.639-5.112-10.407c-5.802-5.672-14.553-6.302-22.259-7.152c-8.004-0.712-16.064-0.672-24.113-0.772
				l-12.075-0.125c-2.053-0.2-4.035,0.429-4.752,2.546C219.474,50.865,218.418,72.65,218.049,77.035L218.049,77.035z
				 M217.156,76.968c0.189-1.945,2.229-25.76,2.324-27.073c0,0,0.12-1.505,0.12-1.505c0.059-3.018,2.358-4.58,5.246-4.257
				c11.731,0.212,24.582-0.267,36.238,0.546c13.03,1.016,25.493,2.966,28.375,17.972c1.181,5.382,0.699,11.11-5.069,13.482
				c-4.708,2.111-10.05,1.675-15.058,2.144c-3.825,0.256-25.795,1.767-30.116,2.057c-2.135,0.142-13.141,0.898-15.059,1.027
				l-1.506,0.103l-0.753,0.051C219.365,81.803,216.907,79.561,217.156,76.968L217.156,76.968z"/>
			<path style="fill:#231F20;" d="M122.568,88.123c12.555-0.987,58.748-4.675,70.464-5.486c0.945-0.09,2.086-0.016,2.84-0.702
				c0.828-0.632,0.989-1.63,1.118-2.608c0.336-2.1,4.606-28.004,5.053-30.719c0.353-1.706-1.1-3.43-2.849-3.358
				c-2.197,0.134-4.458,0.287-6.683,0.451c-4.462,0.38-8.915,0.893-13.347,1.545c-9.963,1.455-19.873,3.554-29.586,6.236
				c-1.076,0.31-2.182,0.549-3.211,0.942c-2.078,0.782-3.922,2.097-5.421,3.755c-7.379,7.666-14.5,15.643-20.645,24.342
				c0,0-0.483,0.687-0.483,0.687C118.294,85.291,119.959,88.36,122.568,88.123L122.568,88.123z M122.604,88.623
				c-2.968,0.225-4.918-3.238-3.128-5.653l0.492-0.684c3.606-5.015,7.577-9.761,11.646-14.401c2.968-3.369,6.027-6.655,9.113-9.916
				c1.492-1.686,3.383-3.072,5.505-3.892c1.832-0.666,4.584-1.336,6.477-1.9c13.006-3.523,26.302-6.044,39.723-7.334
				c2.248-0.191,4.463-0.368,6.742-0.531c1.279-0.043,2.568,0.613,3.27,1.696c0.76,1.078,0.721,2.356,0.462,3.593
				c0,0-4.193,26.596-4.193,26.596l-0.527,3.324l-0.132,0.831c-0.127,0.957-0.636,1.923-1.404,2.535
				c-0.742,0.637-1.732,0.906-2.692,0.925c0,0-0.839,0.06-0.839,0.06C181.674,84.741,134.874,87.807,122.604,88.623L122.604,88.623z
				"/>
		</g>
	</g>
	<g>
		<path style="fill:#FFFFFF;" d="M44.683,106.763c0.366,1.651-0.934,3.344-2.904,3.78c-1.97,0.436-3.863-0.549-4.229-2.2
			c-0.366-1.651,0.934-3.344,2.904-3.78S44.317,105.112,44.683,106.763z"/>
		<path style="fill:#FFFFFF;" d="M33.953,107.39c-3.98,0.312-8.944,1.165-11.624,1.66c-3.443,4.448-6.017,9.072-7.894,14.102
			C30.918,121.607,33.953,107.39,33.953,107.39z"/>
		<g>
			<path style="fill:#56606D;" d="M28.704,120.128c3.63-2.551,7.555-7.359,17.269-10.008c9.714-2.649,10.891-8.34,10.891-8.34
				c-14.186,0.464-26.168,3.076-32.456,4.723c-5.015,5.817-8.443,11.862-10.688,18.678
				C20.674,125.563,25.756,122.199,28.704,120.128z"/>
			<path style="fill:#231F20;" d="M28.456,119.774c2.304-1.653,4.467-3.625,6.891-5.153c2.426-1.58,5.056-2.822,7.774-3.772
				c2.7-0.947,5.492-1.608,7.951-3.108c2.399-1.407,4.68-3.332,5.717-5.978l0.078,0.092c-2.735,0.121-5.463,0.331-8.187,0.585
				c-8.18,0.738-16.242,2.338-24.236,4.184c-2.048,2.459-4.508,5.694-6.211,8.74c-1.8,3.12-3.266,6.429-4.391,9.851
				c0.001,0.016-0.114-0.167-0.115-0.164C19.124,125.133,24.15,122.912,28.456,119.774L28.456,119.774z M28.952,120.481
				c-4.355,3.224-9.747,5.448-15.246,4.826c-0.081-0.007-0.136-0.094-0.106-0.17c2.237-6.892,5.968-13.254,10.712-18.718
				c7.9-2.345,16.146-3.495,24.341-4.276c2.731-0.236,5.47-0.366,8.209-0.44c0.043-0.001,0.078,0.033,0.08,0.075
				c-1.057,4.414-5.538,6.939-9.591,8.149c0,0-2.077,0.59-2.077,0.59c-3.441,0.931-6.707,2.512-9.607,4.578
				C33.292,116.735,31.283,118.751,28.952,120.481L28.952,120.481z"/>
		</g>
		<path style="fill:#F15A29;" d="M44.683,106.763c0.366,1.651-0.934,3.344-2.904,3.78c-1.97,0.436-3.863-0.549-4.229-2.2
			c-0.366-1.651,0.934-3.344,2.904-3.78S44.317,105.112,44.683,106.763z"/>
		<path style="fill:#F15A29;" d="M38.836,107.758c0.536-1.091,1.576-1.72,2.714-2.037c0.796-0.222,1.634-0.308,2.453-0.215
			c-0.803-0.846-2.155-1.251-3.549-0.942c-1.97,0.436-3.27,2.129-2.904,3.78c0.146,0.657,0.535,1.205,1.073,1.604
			C38.388,109.241,38.489,108.466,38.836,107.758z"/>
		<path style="fill:#F15A29;" d="M44.683,106.763c-0.347-1.564-2.063-2.528-3.916-2.255c0.633,0.116,1.234,0.377,1.731,0.816
			c0.6,0.529,0.993,1.314,0.797,2.122c-0.184,0.76-0.779,1.365-1.44,1.744c-0.676,0.389-1.416,0.548-2.184,0.627
			c-0.392,0.04-0.795,0.058-1.19,0.02c0.818,0.683,2.041,0.985,3.298,0.706C43.749,110.107,45.049,108.414,44.683,106.763z"/>
		<path style="fill:#BE1E2D;" d="M33.953,107.39c-3.98,0.312-8.944,1.165-11.624,1.66c-3.443,4.448-6.017,9.072-7.894,14.102
			C30.918,121.607,33.953,107.39,33.953,107.39z"/>
		<path style="fill:#231F20;" d="M44.782,106.741c0.669,3.009-3.186,5.024-5.662,3.714c-1.83-0.809-2.315-3.167-0.963-4.625
			C39.854,103.756,44.017,103.872,44.782,106.741L44.782,106.741z M44.584,106.785c-0.655-2.77-4.738-2.894-6.296-0.845
			c-1.215,1.362-0.699,3.518,0.988,4.181C41.494,111.172,45.011,109.486,44.584,106.785L44.584,106.785z"/>
		<path style="fill:#231F20;" d="M33.915,107.424c-3.873,0.41-7.74,1.012-11.562,1.752c-2.962,3.931-6.027,9.051-7.797,14.02
			c0,0.007-0.132-0.172-0.132-0.17c3.259-0.676,6.486-1.41,9.392-3.038C28.663,117.353,32.271,112.624,33.915,107.424
			L33.915,107.424z M33.992,107.356c0.019,0.085-0.008,0.118-0.009,0.149c-0.015,0.057-0.053,0.247-0.07,0.308
			c-0.516,2.044-1.383,3.994-2.501,5.781c-3.54,5.765-10.16,9.697-16.964,9.685c-0.09,0.008-0.168-0.085-0.131-0.173
			c1.915-5.084,4.58-9.964,7.989-14.182C26.169,108.263,30.077,107.602,33.992,107.356L33.992,107.356z"/>
	</g>
	<g>
		<path style="fill:#56606D;" d="M352.628,115.516c-0.092-27.122-23.801-66.061-23.801-66.061s5.601-3.5,2.8-7.468
			c-1.146-1.624-7.849-4.147-20.548-6.561c6.671,10.338,28.605,46.762,29.546,80.086c0.008,0,0.019,0.005,0.026,0.005
			C340.654,115.516,352.628,115.516,352.628,115.516z"/>
		<path style="opacity:0.5;fill:#56606D;" d="M350.31,107.686c-1.383,0.292-2.731-0.123-3.812-1.006
			c-1.236-1.01-2.011-2.479-2.62-3.925c-0.712-1.69-1.187-3.467-1.644-5.24c-0.46-1.787-0.925-3.562-1.524-5.308
			c-0.644-1.876-1.313-3.743-2.009-5.599c-2.796-7.458-6.039-14.753-9.846-21.752c-1.088-2-2.201-3.982-3.128-6.064
			c-0.483-1.084-0.935-2.192-1.246-3.338c-0.225-0.826-0.452-1.803-0.205-2.651c0.247-0.847,1-1.113,1.813-1.167
			c1.212-0.08,2.453,0.145,3.642,0.358c0.216,0.039,0.432,0.077,0.648,0.115c-0.975-1.703-1.552-2.652-1.552-2.652
			s5.601-3.5,2.8-7.468c-1.146-1.624-7.849-4.147-20.548-6.561c6.671,10.338,28.605,46.762,29.546,80.086
			c0.008,0,0.019,0.005,0.026,0.005h11.977c-0.009-2.712-0.258-5.544-0.692-8.442C351.417,107.35,350.874,107.567,350.31,107.686z"
			/>
		<path style="fill:#231F20;" d="M352.538,115.426c-0.187-7.354-1.683-14.599-3.788-21.632c-2.994-9.892-7.055-19.43-11.616-28.695
			c-2.621-5.289-5.4-10.507-8.417-15.578c-0.035-0.059-0.018-0.135,0.039-0.173c2.548-1.635,5.057-5.056,2.355-7.703
			c-1.505-1.156-3.377-1.775-5.155-2.413c-2.421-0.824-4.899-1.478-7.387-2.079c-2.49-0.596-4.998-1.119-7.513-1.602
			c-0.003,0.001,0.131-0.194,0.13-0.195c13.654,21.077,24.99,44.357,29.026,69.333c0.535,3.573,0.824,7.202,0.541,10.817
			c0.001,0.003-0.123-0.124-0.123-0.123L352.538,115.426L352.538,115.426z M352.719,115.606c-3.02,0-9.079,0.049-12.098,0.033
			c-0.069,0-0.124-0.056-0.123-0.125c-0.978-7.123-1.704-14.216-3.498-21.183c-3.445-13.926-8.971-27.282-15.455-40.062
			c-3.255-6.401-6.78-12.668-10.573-18.773c-0.04-0.059-0.023-0.141,0.038-0.178c2.544,0.389,5.094,1.017,7.618,1.588
			c3.035,0.81,11.719,2.726,13.281,5.312c0.956,1.416,0.716,3.294-0.236,4.646c-0.731,1.085-1.698,1.974-2.779,2.699l0.041-0.174
			c6.001,10.185,11.27,20.806,15.656,31.784C348.849,92.169,352.634,103.704,352.719,115.606L352.719,115.606z"/>
		<path style="fill:#BE1E2D;" d="M328.827,49.455c0,0,5.601-3.5,2.8-7.468c-1.146-1.624-7.849-4.147-20.548-6.561
			c1.42,2.2,3.533,5.586,5.986,9.868c0,0,0.001,0,0.001,0C324.049,47.191,328.827,49.455,328.827,49.455z"/>
		<path style="fill:#BE1E2D;" d="M329.382,42.745c-1.392,0.07-2.781,0.179-4.168,0.318c-1.338,0.133-2.674,0.274-3.989,0.567
			c-1.483,0.329-2.923,0.806-4.326,1.377c0.056,0.097,0.11,0.189,0.166,0.287l0.001,0c6.983,1.897,11.762,4.161,11.762,4.161
			s4.966-3.106,3.203-6.782C331.148,42.68,330.265,42.7,329.382,42.745z"/>
		<path style="fill:#231F20;" d="M328.82,49.327c1.859-1.335,4.129-3.616,3.266-6.138c-0.062-0.267-0.25-0.607-0.395-0.84
			c-0.456-0.845-1.366-1.255-2.185-1.693c-5.833-2.635-12.211-3.825-18.45-5.105c0,0,0.131-0.194,0.131-0.194
			c1.972,3.122,4.35,6.859,5.914,9.814c3.544,0.864,7.045,1.973,10.396,3.423c0.413,0.195,0.824,0.405,1.218,0.64
			C328.759,49.268,328.86,49.304,328.82,49.327L328.82,49.327z M328.834,49.582c-0.488-0.118-1.06-0.362-1.535-0.522
			c-3.383-1.408-6.885-2.545-10.346-3.703c-1.913-3.336-3.899-6.63-5.982-9.862c-0.059-0.088,0.023-0.22,0.131-0.194
			c5.034,0.981,10.064,2.06,14.935,3.69c1.217,0.409,2.42,0.872,3.581,1.437c0.839,0.441,1.822,0.909,2.29,1.79
			C333.723,45.001,331.207,48.127,328.834,49.582L328.834,49.582z"/>
	</g>
	<g>
		<path style="fill:#BE1E2D;" d="M105.25,86.49l21.232-2.577c2.26-0.274,4.314,1.335,4.588,3.595
			c0.314,2.435-1.645,4.637-4.098,4.618l-21.388-0.034C102.077,92.004,101.79,86.988,105.25,86.49L105.25,86.49z"/>
		<path style="fill:#BE1E2D;" d="M104.619,91.613c-0.477-1.013,0.039-1.995,0.843-2.659c1.32-1.091,3.086-1.425,4.729-1.701
			c4.209-0.705,8.446-1.308,12.688-1.783c2.353-0.263,4.761-0.472,7.123-0.26c-0.868-0.938-2.156-1.463-3.521-1.298L105.25,86.49
			c-3.191,0.459-3.188,4.752-0.418,5.488C104.752,91.862,104.679,91.741,104.619,91.613z"/>
		<path style="fill:#BE1E2D;" d="M131.07,87.508c-0.273-2.253-2.316-3.858-4.568-3.596c1.157,0.53,2.111,1.387,1.921,2.787
			c-0.077,0.565-0.318,1.1-0.612,1.585c-0.498,0.822-1.333,1.289-2.213,1.608c-2.173,0.789-4.577,0.906-6.866,0.965
			c-2.515,0.066-5.033,0.118-7.548,0.15c-1.309,0.017-2.618,0.016-3.927-0.024c-0.793-0.024-1.598-0.023-2.385-0.132
			c-0.71-0.098-1.475-0.308-1.976-0.856c-0.002-0.002-0.003-0.004-0.005-0.006c0.274,1.111,1.183,2.064,2.693,2.102l21.388,0.034
			C129.424,92.145,131.383,89.944,131.07,87.508z"/>
		<path style="fill:#231F20;" d="M105.233,86.364c5.826-0.718,14.716-1.926,20.506-2.723c1.909-0.452,4.1,0.273,5.113,2.034
			c1.861,2.936-0.421,6.924-3.884,6.85c0,0,0.211-0.739,0.211-0.739c-2.474,0.022-4.936,0.031-7.385,0.151
			c-2.458,0.151-5.183,0.484-7.676,0.397l-3.797-0.041c-0.877-0.036-2.444,0.027-3.307-0.1
			C101.78,91.54,101.924,86.785,105.233,86.364L105.233,86.364z M105.266,86.617c-2.726,0.343-3.177,4.185-0.613,5.132
			c0.545,0.217,1.162,0.168,1.787,0.172l1.854-0.02c2.112-0.006,5.163-0.103,7.217,0.081c3.664,0.427,7.56,0.445,11.252,0.485
			l0.211-0.739c1.319,0.005,2.578-0.757,3.223-1.902c1.641-3.035-1.084-6.226-4.371-5.47c-0.67,0.072-2.549,0.271-3.247,0.346
			C118.262,85.146,109.576,86.104,105.266,86.617L105.266,86.617z"/>
	</g>
	<g>
		<g>
			<path style="fill:#BE1E2D;" d="M212.826,105.097H195.79c-1.55,0-2.806-1.256-2.806-2.806s1.257-2.806,2.806-2.806h17.036
				c1.55,0,2.806,1.256,2.806,2.806S214.376,105.097,212.826,105.097z"/>
		</g>
		<g>
			<path style="fill:#BE1E2D;" d="M193.794,102.806c0.524-0.918,1.538-1.312,2.503-1.586c1.396-0.396,2.849-0.568,4.293-0.661
				c1.525-0.099,3.055-0.118,4.582-0.184c1.546-0.067,3.091-0.137,4.637-0.195c1.565-0.059,3.133-0.107,4.701-0.129
				c-0.47-0.354-1.052-0.566-1.685-0.566H195.79c-1.55,0-2.806,1.256-2.806,2.806c0,0.586,0.18,1.129,0.486,1.579
				C193.494,103.513,193.595,103.155,193.794,102.806z"/>
		</g>
		<g>
			<path style="fill:#BE1E2D;" d="M212.826,99.485h-0.675c0.227,0.389,0.3,0.845,0.097,1.347c-0.459,1.133-1.816,1.59-2.897,1.869
				c-3.16,0.816-6.468,0.968-9.718,0.934c-1.501-0.015-3.03-0.014-4.523-0.173c-0.679-0.073-1.478-0.195-2.066-0.596
				c0.266,1.274,1.394,2.231,2.746,2.231h17.036c1.55,0,2.806-1.256,2.806-2.806S214.376,99.485,212.826,99.485z"/>
		</g>
		<g>
			<path style="fill:#231F20;" d="M212.826,105.576c-3.223-0.009-9.704-0.078-12.925-0.144c0,0-3.231-0.053-3.231-0.053
				c-0.489-0.023-1.197,0.028-1.673-0.134c-1.748-0.449-2.749-2.557-1.964-4.182c0.469-1.067,1.598-1.789,2.756-1.77l6.462-0.042
				l6.462-0.102l3.231-0.053c0.508,0.005,1.211-0.067,1.714,0.086C217.313,100.175,216.607,105.508,212.826,105.576L212.826,105.576
				z M212.826,104.618c3.16-0.099,3.081-4.663-0.072-4.731c-2.506-0.043-7.938-0.129-10.501-0.169l-6.462-0.042
				c-2.985,0.037-3.567,4.313-0.66,5.076c0.403,0.128,1.111,0.057,1.541,0.063C201.307,104.733,208.17,104.628,212.826,104.618
				L212.826,104.618z"/>
		</g>
	</g>
	<path style="fill:#231F20;" d="M318.161,189.618c-40.151-0.128-99.779,0.095-139.442-0.16
		c-0.081-0.003-139.449-0.456-139.523-0.465c-4.724-0.601-9.117-2.138-13.26-4.397C14.45,178.337,9.158,166.702,9.264,153.9
		c0.018-8.591,0.54-17.277,2.758-25.623c2.854-11.247,9.666-21.141,18.274-28.787c6.796-6.196,14.427-11.337,22.118-16.23
		c23.03-14.804,47.27-27.899,72.949-37.512c25.621-9.671,52.667-15.837,80.055-17.181c27.359-0.846,54.773,0.32,81.998,3.111
		c9.068,1.001,18.116,2.271,27.059,4.127c5.536,1.293,11.309,2.347,16.347,5.131c0.508,0.317,0.986,0.758,1.26,1.302
		c0.311,0.517,0.517,1.112,0.566,1.715c0.082,0.749-0.117,1.527-0.421,2.206c-0.721,1.464-1.926,2.607-3.265,3.512l0.083-0.349
		c1.584,2.513,3.066,5.079,4.513,7.668c7.164,12.98,13.467,26.583,17.255,40.962c1.496,5.757,2.616,11.748,2.073,17.721
		l-0.128-0.221c1.458,0.881,2.416,2.188,3.419,3.48l0.856,1.377c0.149,0.227,0.284,0.462,0.393,0.708l0.352,0.729
		c0.146,0.346,0.56,1.084,0.675,1.472c0.245,0.783,0.886,2.224,1.056,3.055c0.169,0.851,0.67,2.259,0.774,3.135
		c0,0,0.53,3.183,0.53,3.183c0.154,1.601,0.293,3.21,0.398,4.815c0.262,10.187-1.461,20.297-3.948,30.11
		c-0.707,3.217-1.727,6.447-3.558,9.225c-2.683,4.277-6.796,7.664-11.52,9.496C334.504,188.93,326.227,189.518,318.161,189.618
		L318.161,189.618z M318.161,186.533c6.253,0.009,12.507-0.421,18.6-1.78c5.908-1.105,11.404-4.339,14.675-9.475
		c2.335-3.329,3.132-7.596,4.213-11.452c0.157-0.486,0.468-1.801,0.618-2.285c0,0,0.167-0.769,0.167-0.769l0.665-3.079
		c0.454-1.84,0.898-4.345,1.18-6.184c0.564-3.017,0.868-6.327,1.139-9.36c0.021-1.087,0.116-3.664,0.146-4.705
		c-0.04-1.565-0.113-3.131-0.199-4.695l-0.389-3.104c-0.176-1.188-0.519-2.647-0.786-3.824c-0.134-0.385-0.557-1.804-0.699-2.232
		c-0.357-0.956-0.759-1.957-1.227-2.859c0,0-0.744-1.368-0.744-1.368l-0.875-1.283c-0.64-0.794-1.323-1.629-2.142-2.184
		c-0.072-0.049-0.115-0.124-0.126-0.203c-0.311-2.949-0.707-5.855-1.204-8.752c-1.429-8.711-4.111-17.179-7.312-25.394
		c-4.288-10.997-9.473-21.664-15.252-31.958c-0.07-0.12-0.032-0.275,0.084-0.35c1.342-0.925,2.622-2.126,3.21-3.676
		c0.279-0.738,0.327-1.589,0.05-2.334l-0.132-0.376c-0.062-0.118-0.135-0.232-0.202-0.349l-0.203-0.348
		c-1.022-1.127-2.534-1.621-3.921-2.209c-4.242-1.591-8.695-2.621-13.141-3.568c-35.796-6.669-72.564-7.803-108.893-6.928
		C150.573,32.172,98.685,54.672,53.133,84.382c-16.925,10.716-34.677,23.824-39.661,44.281c-1.724,6.564-2.38,13.346-2.571,20.13
		c-0.261,6.78,0.03,13.555,2.699,19.816c3.397,8.306,10.835,14.402,19.305,17.086c2.058,0.676,4.32,1.22,6.451,1.464
		c-0.396-0.01,139.443-0.462,139.362-0.466C218.177,186.616,278.216,186.469,318.161,186.533L318.161,186.533z"/>
	<path style="fill:#F7941D;" d="M39.276,188.076h278.885c9.395,0,16.402-1.1,21.553-2.544c7.586-2.127,13.503-8.09,15.645-15.672
		c12.782-45.241-2.728-54.185-2.728-54.185c0-0.052-0.002-0.106-0.002-0.158c0,0-11.975,0-11.977,0
		c-0.696,0-2.123-1.163-2.737-1.471c-2.444-1.224-4.964-2.3-7.531-3.239c-16.305-5.963-34.806-4.325-48.677,6.542
		c-5.971,4.678-11.218,10.706-14.316,17.676c-3.671,8.258-4.386,17.457-7.91,25.766c-3.355,7.911-9.372,12.587-14.906,15.331
		c-4.979,2.469-10.464,3.739-16.02,3.89c-16.734,0.453-33.474,0.749-50.214,0.81c-8.032,0.029-16.066,0.003-24.097-0.15
		c-8.096-0.155-16.39,0.299-24.275-1.894c-6.908-1.922-11.695-9.262-14.675-15.34c-5.073-10.347-7.876-21.652-13.808-31.611
		c-5.475-9.191-12.956-15.369-22.913-19.068c-9.877-3.669-22.052-2.686-31.952,0.265c-4.702,1.401-9.251,3.388-13.391,6.031
		c-1.078,0.688-2.132,1.416-3.158,2.179c-2.175,1.616-4.341,3.696-6.893,4.708c-4.133,1.64-7.831,1.665-10.128,1.423
		c-2.174,7.59-3.003,16.159-3.003,26.408C10.046,185.508,39.276,188.076,39.276,188.076z"/>
	
		<linearGradient id="SVGID_00000067195849721116968030000005328710518588512955_" gradientUnits="userSpaceOnUse" x1="64.3033" y1="110.6815" x2="291.2092" y2="182.0397">
		<stop  offset="0" style="stop-color:#FFFFFF"/>
		<stop  offset="0.9988" style="stop-color:#BCBEC0"/>
	</linearGradient>
	<path style="fill:url(#SVGID_00000067195849721116968030000005328710518588512955_);" d="M39.276,188.076h278.885
		c9.395,0,16.402-1.1,21.553-2.544c7.586-2.127,13.503-8.09,15.645-15.672c12.782-45.241-2.728-54.185-2.728-54.185
		c0-0.052-0.002-0.106-0.002-0.158c0,0-11.975,0-11.977,0c-0.696,0-2.123-1.163-2.737-1.471c-2.444-1.224-4.964-2.3-7.531-3.239
		c-16.305-5.963-34.806-4.325-48.677,6.542c-5.971,4.678-11.218,10.706-14.316,17.676c-3.671,8.258-4.386,17.457-7.91,25.766
		c-3.355,7.911-9.372,12.587-14.906,15.331c-4.979,2.469-10.464,3.739-16.02,3.89c-16.734,0.453-33.474,0.749-50.214,0.81
		c-8.032,0.029-16.066,0.003-24.097-0.15c-8.096-0.155-16.39,0.299-24.275-1.894c-6.908-1.922-11.695-9.262-14.675-15.34
		c-5.073-10.347-7.876-21.652-13.808-31.611c-5.475-9.191-12.956-15.369-22.913-19.068c-9.877-3.669-22.052-2.686-31.952,0.265
		c-4.702,1.401-9.251,3.388-13.391,6.031c-1.078,0.688-2.132,1.416-3.158,2.179c-2.175,1.616-4.341,3.696-6.893,4.708
		c-4.133,1.64-7.831,1.665-10.128,1.423c-2.174,7.59-3.003,16.159-3.003,26.408C10.046,185.508,39.276,188.076,39.276,188.076z"/>
	<path style="opacity:0.6;fill:#F7941D;" d="M333.085,118.212c-10.045-5.203-22.37-5.198-33.025-1.97
		c-6.532,1.979-14.828,5.304-18.413,11.533c-0.747,1.297-1.217,2.748-1.255,4.25c-0.069,2.702,0.744,6.378,4.164,4.711
		c5.367-2.615,10.914-4.983,16.759-6.294c6.046-1.356,11.795-1.055,17.872-0.166c2.704,0.396,5.544,0.772,8.322,0.955
		c2.468,0.163,5.424,0.57,7.483-1.14c1.813-1.505,2.467-4.063,2.306-6.335C337.104,121.012,335.448,119.436,333.085,118.212z"/>
	<path style="opacity:0.6;fill:#F7941D;" d="M83.407,120.947c-2.129-1.265-4.451-2.175-6.848-2.787
		c-4.941-1.259-10.147-1.282-15.18-0.63c-2.486,0.322-4.95,0.822-7.372,1.468c-2.996,0.799-5.917,1.878-8.799,3.016
		c-3.001,1.185-5.97,2.454-8.919,3.761c-1.114,0.494-2.232,0.984-3.298,1.576c-1.026,0.57-2.094,1.242-2.787,2.213
		c-0.019,0.027-0.042,0.044-0.065,0.061c-0.007,0.722-0.017,1.444-0.01,2.167c0.022,2.143,0.108,4.51,1.104,6.458
		c0.457,0.894,1.158,1.704,2.143,2.015c1.035,0.326,2.143,0.054,3.109-0.368c2.074-0.907,3.778-2.468,5.672-3.675
		c2.264-1.444,4.659-2.676,7.139-3.706c5.055-2.1,10.495-3.349,15.972-3.521c2.702-0.085,5.416,0.101,8.075,0.593
		c2.592,0.48,5.227,1.227,7.6,2.391c0.597,0.293,1.134,0.72,1.663,1.118c0.729,0.549,1.447,1.112,2.183,1.651
		c0.753,0.55,1.524,1.083,2.345,1.526c0.643,0.347,1.369,0.691,2.113,0.716c0.641,0.021,1.134-0.277,1.443-0.835
		c0.578-1.046,0.779-2.268,0.743-3.451c-0.078-2.514-1.157-4.984-2.594-7.013C87.439,123.714,85.474,122.175,83.407,120.947z"/>
	<path style="opacity:0.7;fill:#F7941D;" d="M268.438,136.16c5.326-4.274,10.291-8.965,15.865-12.934
		c11.377-8.101,25.341-12.93,39.383-10.573c7.147,1.199,13.039,4.599,19.456,7.703c5.161,2.497,11.31,3.034,15.666,7.033
		c0.176,0.162,0.343,0.333,0.511,0.502c-2.141-9.59-6.688-12.216-6.688-12.216c0-0.052-0.002-0.106-0.002-0.158
		c0,0-11.975,0-11.977,0c-0.696,0-2.123-1.163-2.737-1.471c-2.444-1.224-4.964-2.3-7.531-3.239
		c-16.305-5.963-34.806-4.325-48.677,6.542c-5.971,4.678-11.218,10.706-14.316,17.676c-0.412,0.926-0.782,1.865-1.127,2.812
		C266.998,137.291,267.724,136.733,268.438,136.16z"/>
	<path style="opacity:0.7;fill:#F7941D;" d="M17.827,130.097c12.476,0.046,22.785-9.206,34.488-12.266
		c6.292-1.646,13.339-2.198,19.804-1.595c6.526,0.609,12.723,2.8,17.967,6.764c4.702,3.555,8.545,8.065,12.795,12.117
		c0.271,0.258,0.544,0.509,0.818,0.758c-0.692-1.37-1.425-2.723-2.216-4.051c-5.475-9.191-12.956-15.369-22.913-19.068
		c-9.877-3.669-22.052-2.686-31.952,0.265c-4.702,1.401-9.251,3.388-13.391,6.031c-1.078,0.688-2.132,1.416-3.158,2.179
		c-2.175,1.616-4.341,3.696-6.893,4.708c-4.133,1.64-7.831,1.665-10.128,1.423c-0.185,0.646-0.357,1.302-0.523,1.963
		C14.237,129.819,16.005,130.091,17.827,130.097z"/>
	<path style="opacity:0.7;fill:#F7941D;" d="M359.984,140.363c-0.794,3.681-2.181,7.238-4.168,10.441
		c-2.131,3.436-4.93,6.348-8.064,8.881c-3.323,2.686-6.989,4.93-10.853,6.75c-3.954,1.863-8.108,3.293-12.355,4.322
		c-4.304,1.043-8.707,1.679-13.128,1.927c-4.409,0.247-8.842,0.106-13.224-0.441c-4.229-0.529-8.415-1.428-12.464-2.764
		c-3.995-1.319-7.837-3.084-11.433-5.268c-3.53-2.144-6.852-4.726-9.526-7.891c-0.966-1.144-1.84-2.366-2.598-3.652
		c-0.737,2.758-1.572,5.485-2.69,8.122c-3.355,7.911-9.372,12.587-14.906,15.331c-4.979,2.469-10.464,3.739-16.02,3.89
		c-16.734,0.453-33.474,0.749-50.214,0.81c-8.032,0.029-16.066,0.003-24.097-0.15c-8.096-0.155-16.39,0.299-24.275-1.894
		c-6.908-1.922-11.695-9.262-14.675-15.34c-3.65-7.445-6.129-15.383-9.44-22.962c1.182,5.178,0.834,10.653-1.792,15.419
		c-3.944,7.156-11.711,10.918-19.181,13.352c-7.755,2.526-16.003,3.559-24.145,3.281c-8.192-0.28-16.393-1.898-23.952-5.107
		c-7.6-3.226-14.607-8.172-19.528-14.868c-3.01-4.097-5.245-8.891-6.413-13.909c-0.555,4.634-0.796,9.638-0.796,15.128
		c0,31.738,29.23,34.305,29.23,34.305h278.885c9.395,0,16.402-1.1,21.553-2.544c7.586-2.127,13.503-8.09,15.645-15.672
		c3.863-13.673,5.14-24.026,5.043-31.824C360.285,138.815,360.15,139.592,359.984,140.363z"/>
	<path style="opacity:0.7;fill:#F7941D;" d="M355.32,164.562c-3.347,0.714-5.973-1.67-8.252-4.342
		c-3.141,2.448-6.568,4.519-10.169,6.216c-3.954,1.863-8.108,3.293-12.355,4.322c-4.304,1.043-8.707,1.679-13.128,1.927
		c-4.409,0.247-8.842,0.106-13.224-0.441c-4.229-0.529-8.415-1.428-12.464-2.764c-3.692-1.219-7.25-2.823-10.607-4.782
		c-2.275,2.414-4.419,4.964-6.636,7.5c-2.214,2.533-4.569,5.024-7.366,6.923c-2.603,1.766-5.591,2.952-8.606,3.804
		c-6.283,1.777-12.871,2.164-19.356,2.551c-16.551,0.988-33.091,2.143-49.677,2.325c-16.366,0.179-32.578-0.824-48.797-3.002
		c-6.274-0.842-12.915-1.976-18.249-5.62c-5.784-3.951-9.053-10.29-13.642-15.391c-0.878-0.976-1.815-1.875-2.803-2.698
		c-4.155,3.933-9.706,6.396-15.109,8.157c-7.755,2.526-16.003,3.559-24.145,3.281c-8.192-0.28-16.393-1.898-23.952-5.107
		c-1.77-0.751-3.506-1.6-5.193-2.538c-1.14,1.091-2.151,2.315-2.945,3.676c-1.249,2.142-2.115,4.671-4.116,6.265
		c-2.496,1.989-5.591,1.629-8.271,0.217c8.582,11.769,23.018,13.037,23.018,13.037h278.885c9.395,0,16.402-1.1,21.553-2.544
		c7.586-2.127,13.503-8.09,15.645-15.672c0.567-2.008,1.073-3.936,1.532-5.804C356.387,164.273,355.864,164.446,355.32,164.562z"/>
	<path style="fill:#231F20;" d="M39.284,187.884c66.481-0.176,221.068,0.343,285.386-0.189c3.948-0.238,7.886-0.714,11.75-1.547
		c3.866-0.781,7.643-2.115,10.768-4.571c3.921-2.977,6.775-7.285,8.054-12.034l0.74-2.876l0.74-2.876
		c0.852-3.318,1.864-8.242,2.342-11.635c0.245-1.681,0.652-4.199,0.743-5.886c0.157-1.729,0.375-4.197,0.351-5.919
		c0.118-6.349-0.446-12.988-3.197-18.786c-1.034-2.169-2.47-4.346-4.426-5.726c-0.06-0.036-0.094-0.101-0.096-0.166l-0.002-0.157
		l0.191,0.191c-2.435,0.05-7.519,0.116-9.806,0.146c0,0-1.634,0.02-1.634,0.02l-0.409,0.005c-1.264-0.036-2.302-1.201-3.419-1.653
		c-14.675-7.242-32.695-8.662-47.483-1.059c-11.38,5.867-20.622,16.219-23.971,28.705c-3.879,13.785-5.047,25.527-18.802,33.392
		c-5.728,3.316-12.319,5.024-18.915,5.124l-6.536,0.097c-8.342,0.153-30.603,0.558-39.215,0.721
		c-10.092,0.188-22.551-0.151-32.682-0.199c-6.552-0.061-13.171-0.063-19.572-1.759c-6.607-1.708-11.003-7.61-14.229-13.252
		c-6.32-11.459-9.333-24.492-16.54-35.35c-5.807-8.863-15.058-15.374-25.316-17.924c-13.115-2.931-28.723-0.164-40.279,6.598
		c-2.826,1.676-5.275,3.725-8.016,5.599c-3.745,2.383-8.401,2.927-12.752,2.633l-0.025-0.001l0.204-0.137
		c-2.175,7.64-2.843,15.635-2.972,23.56c-0.278,7.87,0.913,16.071,5.333,22.747C20.785,181.721,29.964,186.647,39.284,187.884
		L39.284,187.884z M39.268,188.267c-9.486-1.254-18.712-6.225-23.993-14.335c-4.459-6.742-5.679-15.023-5.396-22.963
		c0.129-7.958,0.799-15.969,2.986-23.659c0.026-0.102,0.13-0.157,0.228-0.134c4.235,0.474,8.765-0.459,12.324-2.84
		c3.435-2.601,6.801-5.572,10.648-7.661c13.081-7.224,30.921-10.275,45.009-4.284c24.688,10.471,25.584,32.231,35.913,53.045
		c2.966,5.515,7.087,11.292,13.409,13.033c6.276,1.706,12.883,1.773,19.366,1.776c10.15,0.003,22.576,0.182,32.673,0.058
		c8.727-0.119,30.782-0.423,39.203-0.544l6.533-0.114c6.466-0.113,12.935-1.814,18.475-5.164
		c15.822-9.374,13.539-24.566,19.716-39.39c2.641-6.131,6.889-11.504,11.828-15.929c16.345-15.027,40.437-15.763,59.534-5.67
		c0.733,0.35,1.432,0.904,2.102,1.307c0.221,0.129,0.451,0.253,0.654,0.316c0.115,0.029,0.135,0.037,0.302,0.037l0.409,0.005
		l1.634,0.02c2.765,0.022,7.164,0.108,9.804,0.146c0.106-0.002,0.193,0.085,0.194,0.191l0.002,0.159l-0.096-0.166
		c2.105,1.487,3.488,3.642,4.579,5.891c2.778,5.857,3.362,12.559,3.236,18.961c0.064,1.721-0.23,4.208-0.352,5.947
		c-0.073,1.687-0.516,4.215-0.746,5.908c-0.466,3.404-1.505,8.341-2.348,11.668c0,0-0.742,2.882-0.742,2.882l-0.742,2.882
		c-1.3,4.824-4.202,9.209-8.189,12.234c-3.162,2.485-7.022,3.858-10.92,4.641c-3.888,0.839-7.844,1.316-11.808,1.555
		C261.2,188.612,104.836,188.09,39.268,188.267L39.268,188.267z"/>
	<g>
		<circle style="fill:#414042;" cx="311.072" cy="167.281" r="35.226"/>
		<path style="opacity:0.4;fill:#414042;" d="M339.509,146.499c0.105,1.443-0.504,2.793-1.758,3.599
			c-1.397,0.899-3.142,0.938-4.684,0.428c-1.712-0.566-3.169-1.673-4.611-2.719c-1.599-1.161-3.289-2.178-5.066-3.044
			c-3.663-1.785-7.718-2.963-11.816-2.952c-4.412,0.012-8.726,1.383-12.771,3.039c-1.626,0.666-3.214,1.415-4.821,2.122
			c-1.086,0.478-2.19,0.932-3.337,1.241c-1.051,0.283-2.207,0.482-3.284,0.221c-1.07-0.259-1.82-1.044-2.139-2.085
			c-0.285-0.929-0.309-1.886-0.152-2.829c-5.727,6.264-9.223,14.604-9.223,23.761c0,19.455,15.771,35.226,35.226,35.226
			s35.226-15.771,35.226-35.226C346.298,159.507,343.774,152.325,339.509,146.499z"/>
		<path style="opacity:0.4;fill:#414042;" d="M327.483,157.84c-1.986-1.325-4.108-2.439-6.257-3.474
			c-1.92-0.925-3.999-1.694-6.106-1.71c-0.054,0.127-0.177,0.231-0.347,0.205c-0.318-0.049-0.639-0.077-0.958-0.112
			c-0.427,0.065-0.854,0.162-1.28,0.304c-0.279,0.093-0.437-0.216-0.339-0.426c-0.212-0.009-0.424-0.028-0.637-0.03
			c-4.34-0.058-8.669,1.085-12.442,3.225c-3.672,2.083-6.815,5.112-8.88,8.807c-2.133,3.818-3.162,8.482-2.376,12.822
			c0.821,4.533,3.565,8.514,7.147,11.338c1.798,1.418,3.835,2.56,5.989,3.341c2.351,0.852,4.869,1.301,7.356,1.503
			c5.255,0.427,10.673-0.35,15.504-2.499c4.427-1.969,8.61-5.135,11.216-9.27c1.195-1.896,2.045-4.022,2.327-6.253
			c0.296-2.339-0.045-4.706-0.88-6.905C334.809,164.211,331.444,160.484,327.483,157.84z"/>
		<path style="fill:#231F20;" d="M346.87,167.281c0.077,25.498-25.968,42.842-49.47,33.004
			c-23.326-9.693-29.381-40.314-11.426-58.102C308.674,120.196,346.392,135.564,346.87,167.281L346.87,167.281z M345.726,167.281
			c0.243-24.698-25.256-41.95-48.065-32.375c-22.816,9.587-28.787,39.501-11.178,56.964
			C308.496,213.482,345.441,198.061,345.726,167.281L345.726,167.281z"/>
		<circle style="fill:#E6E7E8;" cx="311.072" cy="167.281" r="23.602"/>
		<path style="opacity:0.5;fill:#E6E7E8;" d="M334.382,163.579c-0.162,2.19-0.636,4.362-1.43,6.407
			c-1.66,4.278-4.705,7.871-8.575,10.318c-3.643,2.304-7.936,3.587-12.245,3.663c-4.333,0.076-8.688-1.112-12.263-3.591
			c-1.941-1.346-3.604-3.011-4.833-5.036c-1.284-2.114-2.115-4.493-2.585-6.914c-0.999-5.141-0.441-10.618,1.481-15.485
			c0.506-1.281,1.125-2.499,1.862-3.642c-5.09,4.329-8.323,10.776-8.323,17.982c0,13.035,10.567,23.602,23.602,23.602
			c13.035,0,23.602-10.567,23.602-23.602C334.673,166.021,334.572,164.786,334.382,163.579z"/>
		<path style="fill:#E6E7E8;" d="M322.188,149.471c-0.861-0.563-1.813-0.983-2.747-1.242c-1.752-0.484-3.587-0.604-5.397-0.529
			c-2.018,0.085-4.13,0.547-5.523,2.13c-0.574,0.653-0.984,1.563-0.706,2.387c0.177,0.524,0.601,0.924,1.044,1.256
			c2.065,1.547,4.816,2.282,7.289,2.877c1.836,0.442,3.762,0.967,5.654,1.068c1.068,0.057,2.232-0.196,2.927-1.01
			c0.5-0.585,0.689-1.39,0.638-2.158C325.233,152.219,323.832,150.545,322.188,149.471z"/>
		<path style="opacity:0.5;fill:#E6E7E8;" d="M329.26,152.24c0.386,0.969,0.702,1.968,0.933,2.993
			c1.006,4.452,0.529,9.205-1.339,13.373c-1.837,4.099-5.29,7.215-9.331,9.088c-4.014,1.861-8.502,2.516-12.876,1.849
			c-4.339-0.661-8.463-2.642-11.671-5.639c-3.262-3.048-5.526-7.13-6.141-11.569c-0.112-0.81-0.171-1.63-0.176-2.449
			c-0.767,2.327-1.189,4.812-1.189,7.396c0,13.035,10.567,23.602,23.602,23.602c13.035,0,23.602-10.567,23.602-23.602
			C334.673,161.565,332.641,156.324,329.26,152.24z"/>
		<path style="fill:#231F20;" d="M335.048,167.281c0.112,21.464-25.871,32.3-41.011,17.035c-9.245-9.027-9.176-25.007,0.162-33.908
			C309.243,135.649,334.824,146.168,335.048,167.281L335.048,167.281z M334.299,167.281c0.113-20.798-25.062-31.3-39.732-16.504
			c-8.955,8.749-8.886,24.226,0.162,32.847C309.302,197.913,334.076,187.728,334.299,167.281L334.299,167.281z"/>
		<circle style="fill:#414042;" cx="311.072" cy="167.281" r="9.818"/>
		<path style="opacity:0.5;fill:#414042;" d="M304.002,170.388c0.213-1.322,0.694-2.637,1.516-3.704
			c1.092-1.419,2.561-2.485,4.256-3.067c3.184-1.093,7.216-0.744,9.72,1.66c0.541,0.519,1.003,1.13,1.385,1.791
			c-0.113-5.324-4.456-9.607-9.808-9.607c-5.422,0-9.818,4.396-9.818,9.818c0,2.724,1.11,5.187,2.901,6.966
			C303.833,172.99,303.802,171.63,304.002,170.388z"/>
		<g>
			<path style="fill:#414042;" d="M317.195,161.815c-0.361-1.27-2.154-1.882-3.309-2.176c-1.441-0.368-2.974-0.397-4.437-0.137
				c-1.545,0.275-3.048,0.857-4.253,1.884c-0.959,0.817-1.985,2.052-1.985,3.386c0,0.428,0.667,0.102,0.777-0.075
				c0.634-1.025,1.196-1.992,2.184-2.727c1.024-0.763,2.291-1.174,3.55-1.319c1.132-0.13,2.304-0.08,3.404,0.233
				c0.532,0.152,1.058,0.361,1.537,0.639c0.52,0.301,0.929,0.732,1.499,0.944C316.492,162.589,317.328,162.285,317.195,161.815z"/>
			<path style="fill:#414042;" d="M319.047,164.311c-0.01-0.034-0.027-0.066-0.042-0.098c-0.047-0.102-0.111-0.191-0.174-0.282
				c-0.087-0.125-0.18-0.246-0.268-0.371c-0.084-0.12-0.156-0.256-0.249-0.368c-0.099-0.119-0.207-0.23-0.307-0.348
				c-0.072-0.085-0.209-0.129-0.316-0.131c-0.122-0.003-0.239,0.023-0.35,0.073c-0.099,0.045-0.206,0.11-0.268,0.203
				c-0.066,0.099-0.089,0.188-0.066,0.307c0.028,0.148,0.052,0.3,0.094,0.445c0.02,0.069,0.059,0.135,0.089,0.2
				c0.033,0.07,0.067,0.139,0.102,0.207c0.083,0.163,0.169,0.326,0.268,0.48c0.043,0.067,0.082,0.133,0.139,0.189
				c0.053,0.053,0.107,0.108,0.169,0.149c0.067,0.044,0.151,0.067,0.225,0.096c0.103,0.026,0.206,0.031,0.311,0.014
				c0.117-0.018,0.227-0.056,0.329-0.114c0.158-0.091,0.323-0.249,0.331-0.445C319.067,164.45,319.067,164.378,319.047,164.311z"/>
		</g>
		<path style="opacity:0.4;fill:#414042;" d="M320.012,163.237c0.279,1.036,0.437,2.101,0.396,3.168
			c-0.036,0.938-0.184,1.949-0.828,2.673c-0.576,0.648-1.424,1.076-2.122,1.579c-0.426,0.307-0.857,0.611-1.329,0.842
			c-0.521,0.255-1.081,0.405-1.641,0.548c-1.136,0.289-2.302,0.469-3.474,0.5c-1.935,0.051-3.915-0.316-5.563-1.375
			c-2.335-1.499-3.736-4.378-3.631-7.152c-0.36,1.021-0.566,2.116-0.566,3.26c0,5.423,4.396,9.818,9.818,9.818
			s9.818-4.396,9.818-9.818C320.89,165.838,320.571,164.471,320.012,163.237z"/>
		<path style="fill:#231F20;" d="M321.265,167.281c0.197,9.209-11.078,13.927-17.504,7.311c-3.9-3.862-3.786-10.709,0.207-14.415
			C310.176,154.004,321.181,158.505,321.265,167.281L321.265,167.281z M320.515,167.281c0.194-8.546-10.264-12.926-16.225-6.781
			c-3.611,3.585-3.496,9.926,0.207,13.355C310.244,179.557,320.426,175.398,320.515,167.281L320.515,167.281z"/>
	</g>
	<g>
		<circle style="fill:#414042;" cx="65.378" cy="167.281" r="35.226"/>
		<path style="opacity:0.4;fill:#414042;" d="M93.815,146.499c0.105,1.443-0.504,2.793-1.758,3.599
			c-1.397,0.899-3.142,0.938-4.684,0.428c-1.712-0.566-3.169-1.673-4.611-2.719c-1.599-1.161-3.289-2.178-5.066-3.044
			c-3.663-1.785-7.718-2.963-11.816-2.952c-4.412,0.012-8.726,1.383-12.771,3.039c-1.626,0.666-3.213,1.415-4.821,2.122
			c-1.086,0.478-2.19,0.932-3.338,1.241c-1.051,0.283-2.207,0.482-3.284,0.221c-1.07-0.259-1.82-1.044-2.139-2.085
			c-0.285-0.929-0.309-1.886-0.152-2.829c-5.727,6.264-9.223,14.604-9.223,23.761c0,19.455,15.771,35.226,35.226,35.226
			s35.226-15.771,35.226-35.226C100.604,159.507,98.081,152.325,93.815,146.499z"/>
		<path style="opacity:0.4;fill:#414042;" d="M81.789,157.84c-1.986-1.325-4.108-2.439-6.257-3.474
			c-1.919-0.925-3.998-1.694-6.106-1.71c-0.054,0.127-0.176,0.231-0.347,0.205c-0.318-0.049-0.639-0.077-0.958-0.112
			c-0.427,0.065-0.854,0.162-1.28,0.304c-0.279,0.093-0.437-0.216-0.34-0.426c-0.212-0.009-0.424-0.028-0.637-0.03
			c-4.34-0.058-8.669,1.085-12.442,3.225c-3.672,2.083-6.816,5.112-8.88,8.807c-2.133,3.818-3.162,8.482-2.376,12.822
			c0.821,4.533,3.565,8.514,7.147,11.338c1.798,1.418,3.835,2.56,5.989,3.341c2.351,0.852,4.869,1.301,7.356,1.503
			c5.255,0.427,10.673-0.35,15.504-2.499c4.427-1.969,8.61-5.135,11.215-9.27c1.195-1.896,2.045-4.022,2.327-6.253
			c0.296-2.339-0.045-4.706-0.88-6.905C89.116,164.211,85.75,160.484,81.789,157.84z"/>
		<path style="fill:#231F20;" d="M101.177,167.281c0.077,25.498-25.968,42.842-49.47,33.004
			c-23.326-9.693-29.381-40.314-11.426-58.102C62.981,120.196,100.698,135.564,101.177,167.281L101.177,167.281z M100.032,167.281
			c0.243-24.698-25.256-41.95-48.065-32.375c-22.816,9.587-28.787,39.501-11.178,56.964
			C62.803,213.482,99.747,198.061,100.032,167.281L100.032,167.281z"/>
		<circle style="fill:#E6E7E8;" cx="65.378" cy="167.281" r="23.601"/>
		<path style="opacity:0.5;fill:#E6E7E8;" d="M88.689,163.579c-0.162,2.19-0.636,4.362-1.429,6.407
			c-1.66,4.278-4.705,7.871-8.575,10.318c-3.643,2.304-7.936,3.587-12.245,3.663c-4.333,0.076-8.688-1.112-12.263-3.591
			c-1.941-1.346-3.604-3.011-4.833-5.036c-1.284-2.114-2.115-4.493-2.585-6.914c-0.999-5.141-0.441-10.618,1.481-15.485
			c0.506-1.281,1.125-2.499,1.862-3.642c-5.09,4.329-8.323,10.776-8.323,17.982c0,13.035,10.567,23.602,23.601,23.602
			c13.035,0,23.602-10.567,23.602-23.602C88.98,166.021,88.879,164.786,88.689,163.579z"/>
		<path style="fill:#E6E7E8;" d="M76.494,149.471c-0.861-0.563-1.813-0.983-2.747-1.242c-1.752-0.484-3.588-0.604-5.397-0.529
			c-2.018,0.085-4.13,0.547-5.523,2.13c-0.574,0.653-0.985,1.563-0.707,2.387c0.177,0.524,0.601,0.924,1.044,1.256
			c2.065,1.547,4.816,2.282,7.289,2.877c1.836,0.442,3.762,0.967,5.654,1.068c1.068,0.057,2.232-0.196,2.927-1.01
			c0.5-0.585,0.689-1.39,0.639-2.158C79.539,152.219,78.138,150.545,76.494,149.471z"/>
		<path style="opacity:0.5;fill:#E6E7E8;" d="M83.566,152.24c0.386,0.969,0.702,1.968,0.933,2.993
			c1.006,4.452,0.529,9.205-1.339,13.373c-1.837,4.099-5.29,7.215-9.331,9.088c-4.015,1.861-8.502,2.516-12.876,1.849
			c-4.339-0.661-8.463-2.642-11.671-5.639c-3.262-3.048-5.526-7.13-6.142-11.569c-0.112-0.81-0.171-1.63-0.176-2.449
			c-0.768,2.327-1.189,4.812-1.189,7.396c0,13.035,10.567,23.602,23.601,23.602c13.035,0,23.602-10.567,23.602-23.602
			C88.98,161.565,86.947,156.324,83.566,152.24z"/>
		<path style="fill:#231F20;" d="M89.355,167.281c0.112,21.464-25.871,32.3-41.011,17.035c-9.245-9.027-9.176-25.007,0.162-33.908
			C63.55,135.649,89.13,146.168,89.355,167.281L89.355,167.281z M88.605,167.281c0.113-20.798-25.062-31.3-39.731-16.504
			c-8.955,8.749-8.886,24.226,0.162,32.847C63.609,197.913,88.382,187.728,88.605,167.281L88.605,167.281z"/>
		<circle style="fill:#414042;" cx="65.378" cy="167.281" r="9.818"/>
		<path style="opacity:0.5;fill:#414042;" d="M58.309,170.388c0.213-1.322,0.694-2.637,1.516-3.704
			c1.093-1.419,2.561-2.485,4.256-3.067c3.184-1.093,7.215-0.744,9.72,1.66c0.541,0.519,1.003,1.13,1.385,1.791
			c-0.114-5.324-4.456-9.607-9.808-9.607c-5.422,0-9.818,4.396-9.818,9.818c0,2.724,1.11,5.187,2.901,6.966
			C58.139,172.99,58.108,171.63,58.309,170.388z"/>
		<g>
			<path style="fill:#414042;" d="M71.501,161.815c-0.36-1.27-2.153-1.882-3.309-2.176c-1.441-0.368-2.974-0.397-4.437-0.137
				c-1.545,0.275-3.048,0.857-4.253,1.884c-0.959,0.817-1.986,2.052-1.985,3.386c0,0.428,0.667,0.102,0.777-0.075
				c0.634-1.025,1.196-1.992,2.184-2.727c1.024-0.763,2.291-1.174,3.55-1.319c1.132-0.13,2.304-0.08,3.404,0.233
				c0.532,0.152,1.058,0.361,1.537,0.639c0.52,0.301,0.929,0.732,1.499,0.944C70.798,162.589,71.634,162.285,71.501,161.815z"/>
			<path style="fill:#414042;" d="M73.354,164.311c-0.01-0.034-0.027-0.066-0.042-0.098c-0.047-0.102-0.111-0.191-0.175-0.282
				c-0.087-0.125-0.18-0.246-0.268-0.371c-0.084-0.12-0.156-0.256-0.249-0.368c-0.099-0.119-0.207-0.23-0.307-0.348
				c-0.071-0.085-0.209-0.129-0.316-0.131c-0.123-0.003-0.239,0.023-0.35,0.073c-0.099,0.045-0.206,0.11-0.268,0.203
				c-0.066,0.099-0.089,0.188-0.067,0.307c0.028,0.148,0.052,0.3,0.094,0.445c0.02,0.069,0.058,0.135,0.089,0.2
				c0.033,0.07,0.067,0.139,0.102,0.207c0.083,0.163,0.169,0.326,0.268,0.48c0.043,0.067,0.082,0.133,0.138,0.189
				c0.053,0.053,0.107,0.108,0.169,0.149c0.067,0.044,0.151,0.067,0.226,0.096c0.103,0.026,0.206,0.031,0.311,0.014
				c0.117-0.018,0.227-0.056,0.33-0.114c0.158-0.091,0.323-0.249,0.331-0.445C73.373,164.45,73.373,164.378,73.354,164.311z"/>
		</g>
		<path style="opacity:0.4;fill:#414042;" d="M74.318,163.237c0.279,1.036,0.437,2.101,0.396,3.168
			c-0.035,0.938-0.184,1.949-0.828,2.673c-0.576,0.648-1.424,1.076-2.122,1.579c-0.426,0.307-0.856,0.611-1.329,0.842
			c-0.521,0.255-1.082,0.405-1.641,0.548c-1.136,0.289-2.301,0.469-3.474,0.5c-1.935,0.051-3.915-0.316-5.563-1.375
			c-2.335-1.499-3.736-4.378-3.631-7.152c-0.36,1.021-0.566,2.116-0.566,3.26c0,5.423,4.396,9.818,9.818,9.818
			s9.818-4.396,9.818-9.818C75.197,165.838,74.877,164.471,74.318,163.237z"/>
		<path style="fill:#231F20;" d="M75.571,167.281c0.197,9.209-11.078,13.927-17.504,7.311c-3.9-3.862-3.786-10.709,0.207-14.415
			C64.483,154.004,75.488,158.505,75.571,167.281L75.571,167.281z M74.822,167.281c0.194-8.546-10.264-12.926-16.225-6.781
			c-3.611,3.585-3.496,9.926,0.207,13.355C64.55,179.557,74.732,175.398,74.822,167.281L74.822,167.281z"/>
	</g>
</g>
</svg>
