<?xml version="1.0" encoding="utf-8"?>
<!-- Generator: Adobe Illustrator 27.5.0, SVG Export Plug-In . SVG Version: 6.00 Build 0)  -->
<svg version="1.1" id="Layer_2" xmlns="http://www.w3.org/2000/svg" xmlns:xlink="http://www.w3.org/1999/xlink" x="0px" y="0px"
	 viewBox="0 0 187.385 240.06" style="enable-background:new 0 0 187.385 240.06;" xml:space="preserve">
<g>
	<g>
		<g>
			<g>
				<path style="fill:#FBD0B4;" d="M81.319,221.939c0,0-1.705-14.003,1.659-24.617c-3.823,0.055-9.31-1.316-12.462-3.243
					c-0.107,5.05,0.108,17.261,4.018,27.802C77.474,220.511,79.709,225.932,81.319,221.939z"/>
				<path style="fill:#C68D71;" d="M79.818,223.911c-0.672,0-1.332-0.416-2.024-0.851c-0.976-0.614-1.983-1.25-3.06-0.75
					l-0.467,0.217l-0.179-0.482c-3.961-10.676-4.15-23.122-4.048-27.977l0.018-0.826l0.705,0.43
					c3.001,1.835,8.355,3.232,12.208,3.174l0.659-0.009l-0.199,0.628c-3.294,10.395-1.657,24.276-1.64,24.415l0.015,0.122
					l-0.045,0.114c-0.394,0.978-0.859,1.524-1.46,1.718C80.139,223.888,79.978,223.911,79.818,223.911z M75.539,221.175
					c1.045,0,1.973,0.585,2.762,1.081c0.662,0.417,1.287,0.81,1.707,0.675c0.288-0.093,0.566-0.45,0.826-1.061
					c-0.154-1.399-1.442-14.105,1.504-24.077c-3.637-0.087-8.327-1.291-11.359-2.906c-0.058,5.185,0.287,16.504,3.84,26.384
					C75.064,221.205,75.304,221.175,75.539,221.175z"/>
			</g>
			<path style="opacity:0.8;fill:#B2B2B2;" d="M82.978,197.322c-3.823,0.055-9.31-1.316-12.462-3.243
				c-0.017,0.787-0.023,1.765-0.011,2.867c1.416-0.073,2.828,0.4,4.096,1.691c2.163,2.202,2.725,5.678,3.049,8.614
				c0.405,3.666,1.021,8.767-1.395,11.828c-0.613,0.777-1.335,1.319-2.111,1.674c0.129,0.376,0.252,0.754,0.39,1.127
				c2.94-1.369,5.174,4.052,6.785,0.058C81.319,221.939,79.614,207.936,82.978,197.322z"/>
		</g>
		<g>
			<g>
				<path style="fill:#5EC1DB;" d="M81.319,221.939c-1.611,3.993-3.845-1.427-6.785-0.058c-1.596,0.554-1.054,2.106-3.422,2.982
					l0.246,0.206c0,0,5.522-1.632,6.352,4.942c2.704-0.389,4.494-1.161,5.584-1.944C83.476,226.909,84.03,222.246,81.319,221.939z"
					/>
				<path style="fill:#2A9BB5;" d="M77.711,230.485c-0.103,0-0.205-0.034-0.287-0.097c-0.102-0.077-0.168-0.192-0.184-0.318
					c-0.246-1.95-0.943-3.314-2.071-4.055c-1.624-1.068-3.657-0.495-3.677-0.49c-0.152,0.046-0.317,0.011-0.439-0.092l-0.246-0.206
					c-0.13-0.108-0.192-0.277-0.163-0.444c0.03-0.167,0.145-0.306,0.303-0.365c1.143-0.423,1.492-0.983,1.862-1.576
					c0.338-0.543,0.687-1.103,1.569-1.41c1.498-0.7,2.843,0.145,3.922,0.825c0.662,0.417,1.287,0.81,1.707,0.675
					c0.304-0.098,0.598-0.492,0.871-1.171c0.08-0.198,0.277-0.316,0.495-0.294c0.7,0.08,1.272,0.404,1.7,0.964
					c1.186,1.555,0.879,4.511,0.691,5.709c-0.019,0.126-0.089,0.239-0.193,0.313c-0.95,0.682-2.727,1.587-5.793,2.028
					C77.756,230.483,77.733,230.485,77.711,230.485z M72.81,224.413c0.841,0,1.899,0.166,2.871,0.801
					c1.275,0.833,2.091,2.263,2.429,4.253c2.425-0.404,3.897-1.106,4.744-1.674c0.241-1.701,0.22-3.794-0.538-4.787
					c-0.196-0.257-0.432-0.431-0.717-0.524c-0.359,0.751-0.777,1.184-1.3,1.353c-0.841,0.275-1.65-0.237-2.506-0.775
					c-0.976-0.614-1.983-1.25-3.06-0.75c-0.609,0.214-0.823,0.558-1.119,1.033c-0.208,0.333-0.442,0.709-0.827,1.069
					C72.797,224.413,72.804,224.413,72.81,224.413z"/>
			</g>
			<g>
				<path style="fill:#E5E5E5;" d="M71.359,225.069l-0.246-0.206c-0.375,0.139-0.816,0.262-1.357,0.36
					c-2.526,0.458-3.597,1.589-3.775,2.786c0,0,0.131,2.186,7.454,2.26c1.628,0.016,3.046-0.081,4.275-0.258
					C76.881,223.436,71.359,225.069,71.359,225.069z"/>
				<path style="fill:#C6C6C6;" d="M73.773,230.627c-0.113,0-0.227-0.001-0.341-0.002c-7.441-0.075-7.791-2.338-7.806-2.596
					c0.136-0.974,0.841-2.572,4.066-3.157c0.484-0.088,0.909-0.2,1.297-0.343c0.119-0.045,0.253-0.021,0.352,0.061l0.106,0.089
					c0.605-0.137,2.516-0.447,4.169,0.634c1.345,0.88,2.169,2.445,2.447,4.652c0.024,0.193-0.111,0.369-0.302,0.397
					C76.545,230.538,75.204,230.627,73.773,230.627z M66.335,228.058c0.019,0,0.483,1.788,7.104,1.855
					c1.377,0.011,2.684-0.057,3.868-0.207c-0.288-1.802-0.984-3.076-2.075-3.792c-1.673-1.1-3.752-0.509-3.773-0.504
					c-0.112,0.035-0.238,0.008-0.329-0.069l-0.09-0.075c-0.372,0.125-0.774,0.226-1.219,0.307
					C67.754,225.948,66.517,226.831,66.335,228.058C66.334,228.058,66.334,228.058,66.335,228.058z"/>
			</g>
			<path style="fill:#7F7F7F;" d="M73.178,224.901c0.251,0.136,0.486,0.3,0.691,0.505c0.441,0.439,0.542,1.085,0.266,1.643
				c-0.567,1.146-2.078,1.446-3.234,1.46c-0.578,0.007-1.175-0.041-1.739-0.174c-0.543-0.129-1.143-0.348-1.54-0.76
				c-0.391-0.405-0.508-0.946-0.342-1.435c-0.79,0.527-1.197,1.185-1.299,1.869c0,0,0.131,2.186,7.454,2.26
				c1.628,0.016,3.046-0.081,4.275-0.258C77.195,225.923,74.866,225.009,73.178,224.901z"/>
		</g>
		<g>
			<path style="fill:#E5E5E5;" d="M83.295,228.067c-1.586,1.138-4.651,2.255-9.86,2.202c-7.324-0.074-7.454-2.26-7.454-2.26l0,0
				c-0.101,0.679,0.083,1.379,0.46,1.99c0.494,0.802,4.378,1.92,10.529,1.346c6.152-0.574,6.281-3.019,6.281-3.019
				S83.269,228.232,83.295,228.067z"/>
			<path style="fill:#C6C6C6;" d="M73.704,231.857c-4.283,0-7.067-0.863-7.566-1.673c-0.436-0.707-0.617-1.499-0.508-2.229
				c0.027-0.18,0.193-0.29,0.368-0.303c0.182,0.008,0.329,0.153,0.34,0.335c0.002,0.004,0.357,1.857,7.103,1.926
				c5.721,0.031,8.503-1.313,9.648-2.136c0.116-0.083,0.272-0.089,0.393-0.015c0.122,0.075,0.188,0.216,0.167,0.358
				c-0.027,0.174-0.046,0.275-0.046,0.275c0,0.061-0.212,2.709-6.597,3.304C75.826,231.809,74.723,231.857,73.704,231.857z
				 M66.455,229.206c0.071,0.205,0.168,0.409,0.289,0.605c0.354,0.574,3.902,1.765,10.193,1.179c3.749-0.35,5.143-1.397,5.659-2.077
				c-1.552,0.823-4.374,1.762-9.164,1.713C69.324,230.583,67.378,229.876,66.455,229.206z"/>
		</g>
	</g>
	<g>
		<g>
			<g>
				<path style="fill:#FBD0B4;" d="M104.399,221.617c2.543-0.039,4.015,2.058,4.015,2.058l-0.359-1.832
					c0,0-2.194-15.397-1.134-26.898c-3.594,1.378-8.787,1.765-12.663,1.223c0.365,4.11,1.758,15.223,6.688,26.25l0.302,0.803
					C101.249,223.221,101.856,221.657,104.399,221.617z"/>
				<path style="fill:#C68D71;" d="M109.306,225.75l-1.278-1.801c-0.014-0.019-1.344-1.857-3.558-1.857
					c-0.021,0-0.042,0.001-0.063,0.001l0,0c-2.161,0.033-2.696,1.253-2.717,1.305l-0.462,1.104l-0.724-1.917
					c-4.924-11.009-6.337-22.114-6.717-26.376l-0.053-0.595l0.592,0.083c4.013,0.562,9.123,0.071,12.428-1.196l0.712-0.274
					l-0.069,0.761c-1.043,11.312,1.109,26.633,1.131,26.787L109.306,225.75z M104.471,221.142c1.37,0,2.445,0.553,3.181,1.111
					l-0.062-0.319c-0.026-0.174-2.102-14.954-1.204-26.293c-3.288,1.091-7.772,1.507-11.6,1.072
					c0.448,4.582,1.931,15.08,6.593,25.511l0.004,0.01c0.516-0.507,1.438-1.068,3.008-1.092l0,0
					C104.418,221.143,104.445,221.142,104.471,221.142z"/>
			</g>
			<path style="opacity:0.8;fill:#B2B2B2;" d="M108.056,221.843c0,0-2.194-15.396-1.134-26.898
				c-3.594,1.378-8.787,1.765-12.663,1.223c0.069,0.783,0.177,1.822,0.338,3.064c1.462-0.721,3.065-1.023,4.682-0.455
				c3.14,1.103,3.719,4.548,3.957,7.468c0.142,1.741,0.153,3.458,0.371,5.196c0.246,1.962,0.846,4.011,0.384,5.993
				c-0.486,2.087-1.836,3.229-3.504,3.911c0.153,0.358,0.299,0.715,0.459,1.074l0.302,0.803c0,0,0.607-1.564,3.15-1.603
				c2.543-0.039,4.015,2.058,4.015,2.058L108.056,221.843z"/>
		</g>
		<g>
			<g>
				<path style="fill:#5EC1DB;" d="M108.056,221.843l0.359,1.832c0,0-1.472-2.098-4.015-2.058c-2.543,0.039-3.151,1.603-3.151,1.603
					l-0.302-0.803c0,0-1.066-0.138-1.593,1.613c-0.402,1.336-1.457,2.377-2.169,3.446l0.064,0.092c0,0,2.49-2.689,6.996-2.168
					c5.148,0.595,6.768,4.193,6.768,4.193C111.257,225.637,109.821,221.888,108.056,221.843z"/>
				<path style="fill:#2A9BB5;" d="M111.012,230.068c-0.184,0-0.354-0.107-0.432-0.277c-0.063-0.137-1.593-3.363-6.39-3.917
					c-4.219-0.492-6.57,1.992-6.592,2.018c-0.099,0.105-0.238,0.162-0.383,0.151c-0.144-0.011-0.276-0.086-0.357-0.205l-0.063-0.092
					c-0.109-0.16-0.111-0.37-0.004-0.533c0.214-0.323,0.46-0.643,0.71-0.969c0.561-0.733,1.141-1.49,1.4-2.35
					c0.636-2.115,2.047-1.951,2.109-1.947c0.168,0.022,0.311,0.132,0.377,0.287c0.516-0.507,1.438-1.067,3.007-1.091
					c1.401-0.003,2.51,0.541,3.261,1.11l-0.062-0.319c-0.028-0.141,0.01-0.287,0.103-0.397c0.093-0.11,0.252-0.153,0.375-0.169
					c0.549,0.014,1.09,0.294,1.563,0.81c1.276,1.393,2.039,4.455,1.854,7.446c-0.013,0.217-0.174,0.397-0.388,0.437
					C111.069,230.066,111.04,230.068,111.012,230.068z M103.084,224.859c0.388,0,0.792,0.022,1.214,0.07
					c3.326,0.385,5.251,1.956,6.248,3.128c-0.107-2.197-0.721-4.261-1.616-5.238c-0.082-0.089-0.163-0.166-0.245-0.232l0.195,0.996
					c0.044,0.219-0.073,0.439-0.278,0.527c-0.208,0.087-0.446,0.021-0.575-0.162c-0.014-0.019-1.345-1.857-3.558-1.857
					c-0.021,0-0.042,0.001-0.063,0.001c-2.161,0.033-2.696,1.253-2.717,1.305c-0.076,0.18-0.242,0.311-0.448,0.295
					c-0.195-0.004-0.368-0.122-0.437-0.305l-0.164-0.437c-0.235,0.109-0.586,0.406-0.831,1.218
					c-0.177,0.588-0.461,1.111-0.787,1.602C100.033,225.281,101.396,224.859,103.084,224.859z"/>
			</g>
			<g>
				<path style="fill:#E5E5E5;" d="M104.244,225.402c-4.506-0.521-6.996,2.168-6.996,2.168s-1.728,4.231,6.11,4.638
					c6.795,0.353,7.568-1.984,7.654-2.613C111.012,229.594,109.392,225.997,104.244,225.402z"/>
				<path style="fill:#C6C6C6;" d="M104.673,232.599c-0.417,0-0.862-0.011-1.333-0.036c-3.171-0.164-5.234-0.966-6.133-2.383
					c-0.848-1.335-0.312-2.689-0.289-2.745c0.017-0.04,0.04-0.076,0.069-0.108c0.107-0.115,2.66-2.821,7.299-2.279l0,0
					c5.288,0.611,6.982,4.245,7.052,4.399c0.028,0.061,0.037,0.128,0.029,0.195C111.266,230.367,110.485,232.599,104.673,232.599z
					 M97.557,227.763c-0.08,0.243-0.316,1.151,0.256,2.045c0.762,1.188,2.686,1.894,5.564,2.045
					c6.185,0.317,7.123-1.603,7.263-2.206c-0.294-0.568-1.969-3.374-6.437-3.891l0,0C100.25,225.305,97.912,227.415,97.557,227.763z
					"/>
			</g>
			<path style="fill:#7F7F7F;" d="M104.244,225.402c-4.506-0.521-6.996,2.168-6.996,2.168s-1.728,4.231,6.11,4.638
				c6.795,0.353,7.568-1.984,7.654-2.613C111.012,229.594,109.392,225.997,104.244,225.402z M107.154,229.659
				c-0.221,0.375-0.495,0.715-0.884,0.928c-0.435,0.237-0.866,0.334-1.354,0.401c-0.757,0.103-1.562,0.02-2.308-0.115
				c-0.787-0.142-1.49-0.414-2.103-0.939c-0.625-0.536-1.017-1.408-0.864-2.196c-0.141-0.556,0.123-1.172,0.598-1.5
				c0.528-0.365,1.224-0.483,1.845-0.562c0.692-0.088,1.383-0.052,2.075,0.021c1.13,0.12,2.506,0.527,3.08,1.605
				C107.638,228.053,107.586,228.928,107.154,229.659z"/>
		</g>
		<g>
			<path style="fill:#E5E5E5;" d="M103.358,232.208c-7.838-0.407-6.11-4.638-6.11-4.638l-0.064-0.092
				c-0.748,1.124-1.116,2.28,0.069,3.843c2.312,3.048,13.014,3.459,13.627-0.459c0.066-0.422,0.105-0.845,0.131-1.266
				C110.926,230.223,110.153,232.56,103.358,232.208z"/>
			<path style="fill:#C6C6C6;" d="M104.653,234.059c-3.08,0-6.42-0.859-7.683-2.523c-1.368-1.804-0.809-3.164-0.083-4.255
				c0.067-0.098,0.202-0.164,0.297-0.159c0.117,0,0.227,0.058,0.294,0.155l0.063,0.092c0.067,0.098,0.08,0.225,0.036,0.335
				c-0.018,0.044-0.419,1.084,0.235,2.105c0.762,1.188,2.686,1.894,5.564,2.045c6.583,0.335,7.221-1.861,7.282-2.306
				c0.026-0.189,0.177-0.327,0.389-0.306c0.19,0.019,0.332,0.185,0.32,0.377c-0.031,0.494-0.073,0.906-0.135,1.299
				c-0.205,1.317-1.371,2.28-3.37,2.784C106.908,233.94,105.799,234.059,104.653,234.059z M96.843,229.37
				c-0.002,0.525,0.201,1.084,0.695,1.735c1.38,1.821,6.595,2.798,10.149,1.904c1.059-0.267,2.334-0.794,2.736-1.815
				c-0.989,0.825-2.997,1.588-7.084,1.369l0,0c-3.171-0.164-5.234-0.966-6.133-2.383C97.033,229.907,96.917,229.633,96.843,229.37z"
				/>
		</g>
	</g>
	<g>
		<g>
			<g>
				<path style="fill:#FBD0B4;" d="M152.274,138.862c-3.238,1.608-6.529,3.533-6.529,3.533s4.347-3.855,5.702-5.501
					c1.355-1.645,0.291-3.616-2.395-1.544c-2.743,2.116-6.544,5.448-6.544,5.448s1.977-2.922,3.43-5.411
					c1.453-2.489-0.852-3.952-2.534-1.294c-1.444,2.282-3.692,6.067-4.638,7.946c0,0,0.05-1.973,0.335-3.178
					c0.41-1.736,0.983-3.486-0.313-3.879c-1.296-0.393-1.935,0.578-2.842,3.733c-0.908,3.155-3.132,5.388-1.501,9.179
					c0,0-11.666,6.345-19.462,4.185c-0.949,2.585-2.962,5.473-6.423,7.499c0,0,2.303,4.16,11.344,3.511
					c11.14-0.799,19.172-10.68,19.172-10.68s3.324,1.191,8.283-3.019c0.697-0.592,7.076-0.335,7.323-2.624
					c0.267-2.479-4.918-1.441-6.848-1.013c0,0,3.333-2.38,6.338-4.34C157.176,139.455,155.512,137.255,152.274,138.862z"/>
				<path style="fill:#C68D71;" d="M118.036,163.634c-7.68,0.001-9.799-3.656-9.892-3.824l-0.224-0.406l0.4-0.235
					c3.939-2.306,5.586-5.534,6.217-7.253l0.151-0.411l0.422,0.117c6.749,1.868,16.693-2.908,18.734-3.949
					c-1.011-2.728-0.128-4.747,0.727-6.702c0.333-0.762,0.677-1.549,0.919-2.386c0.721-2.507,1.251-3.544,2.028-3.967
					c0.412-0.223,0.873-0.252,1.409-0.089c1.604,0.486,1.152,2.331,0.754,3.958l-0.118,0.484c-0.062,0.263-0.112,0.567-0.153,0.88
					c1.075-1.91,2.514-4.305,3.593-6.011c1.043-1.646,2.347-1.891,3.114-1.421c0.748,0.454,1.139,1.652,0.231,3.208
					c-0.508,0.87-1.083,1.798-1.615,2.636c1.25-1.057,2.758-2.306,4.029-3.287c2.075-1.6,3.087-0.843,3.349-0.572
					c0.627,0.648,0.502,1.823-0.298,2.793c-0.577,0.701-1.665,1.777-2.741,2.794c0.934-0.504,1.968-1.047,2.991-1.555l0,0
					c2.06-1.022,3.503-0.601,3.974,0.223c0.404,0.708,0.226,1.958-1.607,3.154c-1.597,1.041-3.298,2.21-4.534,3.071
					c2.416-0.358,3.976-0.198,4.737,0.482c0.404,0.361,0.583,0.863,0.519,1.453c-0.208,1.928-3.383,2.331-5.701,2.626
					c-0.719,0.091-1.614,0.204-1.799,0.319c-4.266,3.623-7.409,3.384-8.406,3.182c-1.33,1.551-8.922,9.875-19.31,10.62
					C119.269,163.612,118.635,163.634,118.036,163.634z M109.252,159.716c0.823,0.953,3.643,3.4,10.617,2.901
					c10.8-0.774,18.76-10.408,18.839-10.506l0.213-0.261l0.316,0.113c0.028,0.009,3.161,1.018,7.815-2.934
					c0.316-0.27,0.964-0.362,2.281-0.529c1.777-0.225,4.749-0.603,4.876-1.785c0.04-0.369-0.091-0.537-0.208-0.642
					c-0.401-0.359-1.722-0.819-6.066,0.144l-2.276,0.504l1.896-1.355c0.033-0.023,3.376-2.408,6.355-4.351
					c1.138-0.742,1.517-1.51,1.302-1.886c-0.22-0.387-1.213-0.593-2.727,0.158l0,0c-3.186,1.581-6.468,3.499-6.501,3.518
					l-0.556-0.765c0.044-0.038,4.335-3.85,5.651-5.447c0.52-0.631,0.585-1.285,0.348-1.53c-0.251-0.261-1.011-0.165-2.086,0.663
					c-2.699,2.083-6.484,5.396-6.522,5.429l-2.77,2.428l2.064-3.051c0.02-0.029,1.985-2.938,3.413-5.385
					c0.553-0.947,0.462-1.695,0.096-1.918c-0.398-0.246-1.15,0.064-1.818,1.118c-1.504,2.376-3.716,6.119-4.615,7.905l-0.952,1.893
					l0.053-2.118c0.002-0.083,0.054-2.036,0.347-3.276l0.119-0.492c0.395-1.616,0.585-2.612-0.107-2.822
					c-0.37-0.112-0.558-0.051-0.679,0.015c-0.62,0.337-1.141,1.905-1.57,3.395c-0.258,0.897-0.616,1.714-0.961,2.504
					c-0.891,2.037-1.661,3.797-0.561,6.357l0.172,0.398l-0.38,0.207c-0.475,0.258-11.521,6.197-19.398,4.332
					C114.531,154.478,112.846,157.457,109.252,159.716z"/>
			</g>
			<path style="opacity:0.8;fill:#B2B2B2;" d="M148.197,147.109c-2.292,1.491-5.467,2.229-8.224,1.754
				c-4.342,5.049-10.96,8.64-17.386,9.757c-3.091,0.538-8.456,1.131-12.418-0.136c-0.502,0.384-1.028,0.755-1.609,1.096
				c0,0,2.303,4.16,11.344,3.511c11.14-0.799,19.172-10.68,19.172-10.68s3.324,1.191,8.283-3.019
				c0.697-0.592,7.076-0.335,7.323-2.624c0.033-0.306-0.019-0.557-0.135-0.764C152.466,146.805,150.093,147.183,148.197,147.109z"/>
			<g>
				<path style="fill:#FFBB22;" d="M98.115,138.776c0,0,6.752,1.742,14.31,7.78c4.021-3.884,4.877,7.371-4.201,12.687
					c-2.368,1.11-3.334-0.739-2.626-2.001c0,0-7.478-3.783-11.895-12.027C91.694,141.466,93.69,137.479,98.115,138.776z"/>
				<path style="fill:#F7A500;" d="M107.223,160.392c-0.803,0-1.272-0.379-1.48-0.602c-0.481-0.518-0.629-1.29-0.415-1.997
					c-1.621-0.907-7.797-4.717-11.708-12.017c-1.152-2.15-1.113-4.502,0.097-5.994c1.063-1.308,2.835-1.716,4.859-1.127
					c0.371,0.096,6.805,1.832,14.166,7.619c0.908-0.744,1.604-0.725,2.044-0.56c0.742,0.278,1.211,1.125,1.319,2.385
					c0.25,2.914-1.49,8.486-7.306,11.893C108.172,160.285,107.65,160.392,107.223,160.392z M96.824,139.336
					c-0.992,0-1.808,0.354-2.368,1.045c-0.969,1.193-0.969,3.135,0.002,4.946c4.297,8.02,11.617,11.791,11.69,11.829l0.443,0.224
					l-0.242,0.433c-0.254,0.453-0.217,1,0.091,1.331c0.372,0.402,1.072,0.404,1.919,0.007c5.36-3.14,7.021-8.399,6.8-10.971
					c-0.071-0.836-0.342-1.441-0.706-1.576c-0.321-0.121-0.819,0.109-1.362,0.633l-0.301,0.29l-0.327-0.261
					c-7.38-5.898-14.064-7.675-14.131-7.692l-0.015-0.005C97.787,139.413,97.287,139.336,96.824,139.336z"/>
			</g>
			<path style="opacity:0.8;fill:#B2B2B2;" d="M114.473,152.931c-6.998,1.866-12.884-5.853-11.941-12.297
				c-2.49-1.106-4.081-1.521-4.081-1.521c-4.425-1.297-6.421,2.689-4.412,6.439c4.417,8.244,11.895,12.027,11.895,12.027
				c-0.708,1.262,0.258,3.111,2.626,2.001c3.112-1.822,5.056-4.343,6.106-6.712C114.601,152.887,114.539,152.913,114.473,152.931z"
				/>
		</g>
		<g>
			<g>
				<path style="fill:#FBD0B4;" d="M27.282,138.862c3.238,1.608,6.529,3.533,6.529,3.533s-4.347-3.855-5.702-5.501
					c-1.355-1.645-0.291-3.616,2.395-1.544c2.743,2.116,6.544,5.448,6.544,5.448s-1.977-2.922-3.43-5.411
					c-1.453-2.489,0.852-3.952,2.534-1.294c1.444,2.282,3.692,6.067,4.638,7.946c0,0-0.05-1.973-0.335-3.178
					c-0.41-1.736-0.983-3.486,0.313-3.879c1.296-0.393,1.935,0.578,2.842,3.733c0.908,3.155,3.132,5.388,1.501,9.179
					c0,0,11.666,6.345,19.462,4.185c0.948,2.585,2.962,5.473,6.423,7.499c0,0-2.303,4.16-11.344,3.511
					c-11.14-0.799-19.172-10.68-19.172-10.68s-3.324,1.191-8.283-3.019c-0.697-0.592-7.076-0.335-7.323-2.624
					c-0.267-2.479,4.918-1.441,6.848-1.013c0,0-3.333-2.38-6.338-4.34C22.381,139.455,24.045,137.255,27.282,138.862z"/>
				<path style="fill:#C68D71;" d="M61.521,163.634c-0.599,0-1.232-0.022-1.902-0.07c-10.388-0.745-17.98-9.069-19.31-10.62
					c-0.999,0.203-4.144,0.438-8.418-3.191c-0.173-0.106-1.068-0.219-1.787-0.31c-2.318-0.294-5.493-0.698-5.701-2.626
					c-0.063-0.59,0.116-1.092,0.52-1.453c0.761-0.68,2.321-0.842,4.737-0.482c-1.236-0.861-2.937-2.03-4.534-3.071
					c-1.833-1.196-2.011-2.446-1.607-3.154c0.469-0.822,1.915-1.244,3.975-0.223l0,0c1.023,0.508,2.056,1.051,2.989,1.555
					c-1.076-1.019-2.163-2.093-2.741-2.794c-0.8-0.97-0.925-2.146-0.298-2.793c0.263-0.271,1.277-1.027,3.349,0.572
					c1.271,0.981,2.779,2.23,4.029,3.287c-0.533-0.838-1.108-1.766-1.615-2.636c-0.908-1.556-0.517-2.753,0.231-3.208
					c0.766-0.471,2.072-0.226,3.114,1.421c1.078,1.705,2.517,4.1,3.593,6.01c-0.041-0.313-0.091-0.616-0.153-0.879l-0.118-0.484
					c-0.398-1.627-0.85-3.472,0.755-3.958c0.538-0.162,0.997-0.133,1.408,0.089c0.776,0.423,1.307,1.46,2.028,3.966
					c0.241,0.838,0.585,1.625,0.919,2.387c0.855,1.955,1.739,3.974,0.728,6.702c2.041,1.04,11.979,5.815,18.733,3.949l0.422-0.117
					l0.151,0.411c0.631,1.719,2.278,4.947,6.217,7.253l0.4,0.235l-0.225,0.406C71.32,159.978,69.2,163.634,61.521,163.634z
					 M40.637,151.855l0.212,0.256c0.079,0.097,8.039,9.732,18.839,10.506c7.02,0.505,9.811-1.944,10.621-2.898
					c-3.596-2.259-5.282-5.24-6.025-7.073c-7.873,1.863-18.923-4.075-19.398-4.332l-0.38-0.207l0.172-0.398
					c1.1-2.56,0.33-4.319-0.561-6.357c-0.346-0.79-0.703-1.607-0.961-2.505c-0.429-1.489-0.95-3.057-1.57-3.394
					c-0.121-0.066-0.308-0.127-0.678-0.015c-0.693,0.21-0.503,1.206-0.108,2.822l0.119,0.492c0.293,1.239,0.346,3.193,0.348,3.276
					l0.054,2.118l-0.953-1.893c-0.901-1.789-3.114-5.532-4.616-7.905c-0.666-1.054-1.419-1.364-1.817-1.118
					c-0.367,0.223-0.457,0.97,0.096,1.918c1.429,2.447,3.394,5.356,3.413,5.385l2.064,3.051l-2.77-2.428
					c-0.038-0.033-3.823-3.346-6.522-5.429c-1.073-0.829-1.836-0.924-2.085-0.663c-0.237,0.245-0.172,0.899,0.348,1.53
					c1.316,1.597,5.607,5.409,5.651,5.447l-0.556,0.765c-0.032-0.02-3.314-1.937-6.5-3.518c-1.517-0.752-2.51-0.544-2.728-0.158
					c-0.215,0.376,0.163,1.144,1.302,1.886c2.979,1.943,6.322,4.328,6.355,4.351l1.896,1.355l-2.276-0.504
					c-4.344-0.963-5.663-0.503-6.065-0.144c-0.117,0.105-0.248,0.273-0.208,0.642c0.127,1.182,3.1,1.56,4.876,1.785
					c1.317,0.167,1.965,0.259,2.281,0.529c4.653,3.949,7.786,2.944,7.819,2.932L40.637,151.855z"/>
			</g>
			<path style="opacity:0.8;fill:#B2B2B2;" d="M68.757,157.988c-3.998,1.25-8.617,0.739-12.597-0.117
				c-4.852-1.044-10.375-2.598-13.384-6.756c-3.125-0.001-6.1-0.773-8.094-3.557c-1.347,0.239-2.749,0.244-4.127,0.057
				c-1.921-0.261-3.397-1.07-4.627-2.256c-0.698,0.217-1.135,0.645-1.053,1.409c0.246,2.29,6.625,2.033,7.323,2.624
				c4.959,4.21,8.283,3.019,8.283,3.019s8.032,9.881,19.172,10.68c9.041,0.648,11.344-3.511,11.344-3.511
				C70.167,159.094,69.426,158.557,68.757,157.988z"/>
			<g>
				<path style="fill:#FFBB22;" d="M81.105,139.113c0,0-6.752,1.742-14.31,7.78c-4.021-3.884-4.877,7.371,4.201,12.687
					c2.368,1.11,3.334-0.739,2.626-2.001c0,0,7.478-3.783,11.895-12.027C87.526,141.802,85.53,137.816,81.105,139.113z"/>
				<path style="fill:#F7A500;" d="M72.326,160.398c-0.417,0-0.925-0.103-1.531-0.387c-5.855-3.427-7.594-8.999-7.345-11.913
					c0.109-1.26,0.577-2.107,1.319-2.385c0.44-0.165,1.136-0.184,2.044,0.56c7.361-5.786,13.794-7.522,14.166-7.619
					c2.022-0.59,3.796-0.181,4.86,1.127c1.211,1.492,1.25,3.844,0.097,5.994c-3.911,7.3-10.087,11.11-11.708,12.017
					c0.214,0.708,0.067,1.48-0.415,1.997C73.604,160.015,73.13,160.398,72.326,160.398z M65.288,146.57
					c-0.067,0-0.128,0.011-0.185,0.032c-0.364,0.135-0.635,0.74-0.706,1.576c-0.221,2.573,1.441,7.831,6.839,10.992
					c0.805,0.375,1.506,0.374,1.881-0.027c0.308-0.331,0.345-0.879,0.091-1.331l-0.242-0.432l0.443-0.224
					c0.073-0.037,7.4-3.82,11.69-11.829c0.97-1.811,0.971-3.753,0.002-4.946c-0.822-1.013-2.194-1.299-3.862-0.813l-0.015,0.005
					c-0.067,0.017-6.751,1.793-14.131,7.692l-0.326,0.261l-0.301-0.29C66.019,146.803,65.602,146.57,65.288,146.57z"/>
			</g>
			<path style="opacity:0.8;fill:#B2B2B2;" d="M81.105,139.113c0,0-2.325,0.606-5.763,2.315c0.067,0.226,0.125,0.458,0.168,0.702
				c0.717,4.067-2.629,8.155-6.397,9.232c-1.591,0.455-3.25,0.404-4.791-0.046c0.812,2.764,2.867,6.036,6.674,8.266
				c2.368,1.11,3.334-0.739,2.626-2.001c0,0,7.478-3.783,11.895-12.027C87.526,141.802,85.53,137.816,81.105,139.113z"/>
		</g>
		<g>
			<g>
				<path style="fill:#FFBB22;" d="M80.173,141.808c-4.632-8.051,24.814-7.464,20.616,1.236c5.16,7.751,4.562,26.899,4.562,26.899
					s2.084,0.245,2.096,1.974c0.015,1.952-5.079,5.879-19.887,5.347c-14.808-0.532-24.139-5.364-18.247-7.59
					C69.314,169.675,70.63,150.077,80.173,141.808z"/>
				<path style="fill:#F7A500;" d="M90.559,178.126c-0.852,0-1.744-0.016-2.678-0.049c-10.796-0.388-19.98-3.149-20.473-6.156
					c-0.105-0.639,0.133-1.532,1.791-2.24c0.209-2.569,1.912-19.689,10.717-27.646c-0.682-1.434-0.424-2.774,0.746-3.803
					c3.551-3.128,15.259-2.908,19.573,0.367c1.706,1.295,2.197,2.93,1.431,4.74c4.682,7.366,4.564,23.697,4.507,26.552
					c0.887,0.232,2.075,0.912,2.087,2.359c0.005,0.62-0.345,1.289-1.01,1.936C106.253,175.154,102.233,178.126,90.559,178.126z
					 M89.578,136.944c-3.468,0-6.76,0.655-8.288,2.001c-0.926,0.816-1.047,1.784-0.368,2.962l0.195,0.34l-0.296,0.256
					c-9.282,8.042-10.683,27.346-10.696,27.54l-0.02,0.305l-0.286,0.108c-0.594,0.225-1.575,0.693-1.474,1.312
					c0.314,1.909,8.093,4.947,19.57,5.359c13.382,0.487,17.673-2.65,18.673-3.621c0.462-0.448,0.725-0.904,0.723-1.247
					c-0.009-1.285-1.61-1.498-1.678-1.507l-0.43-0.053l0.012-0.433c0.006-0.19,0.534-19.086-4.482-26.621l-0.15-0.225l0.118-0.244
					c0.72-1.493,0.38-2.741-1.037-3.818C97.563,137.766,93.461,136.944,89.578,136.944z"/>
			</g>
			<path style="opacity:0.8;fill:#B2B2B2;" d="M105.688,170.28c0,0,0.393-12.597-2.212-21.492c-0.254,4.076-1.395,8.035-3.65,11.714
				c-3.126,5.101-8.424,9.24-14.691,7.315c-8.532-2.621-11.462-10.625-10.157-18.204c-4.562,9.066-5.328,20.399-5.328,20.399
				c-5.892,2.226,3.438,7.058,18.247,7.59c14.808,0.532,19.902-3.395,19.887-5.347C107.771,170.525,105.688,170.28,105.688,170.28z"
				/>
		</g>
		<g>
			<path style="opacity:0.8;fill:#B2B2B2;" d="M84.731,136.839c0,0-0.367,3.423-0.59,6.39c-0.223,2.967,3.01,4.799,6.586,4.799
				c3.576,0,6.6-2.272,6.6-4.799c0-2.527-0.006-6.39-0.006-6.39H84.731z"/>
			<g>
				<path style="fill:#FBD0B4;" d="M85.229,136.463c0,0-0.338,3.152-0.543,5.885c-0.205,2.733,2.772,4.42,6.065,4.42
					s6.078-2.092,6.078-4.42c0-2.328-0.005-5.885-0.005-5.885H85.229z"/>
				<path style="fill:#C68D71;" d="M90.751,147.242c-2.269,0-4.324-0.754-5.497-2.019c-0.762-0.823-1.123-1.829-1.043-2.911
					c0.204-2.709,0.542-5.869,0.545-5.9l0.045-0.424h12.496l0.007,6.36C97.304,145.001,94.303,147.242,90.751,147.242z
					 M85.657,136.938c-0.098,0.952-0.34,3.337-0.497,5.445c-0.062,0.824,0.204,1.561,0.791,2.195c0.996,1.073,2.791,1.714,4.8,1.714
					c2.985,0,5.604-1.843,5.604-3.945l-0.006-5.41H85.657z"/>
			</g>
			<path style="opacity:0.8;fill:#B2B2B2;" d="M96.364,143.979c0.298-0.512,0.465-1.064,0.465-1.632
				c0-2.328-0.005-5.885-0.005-5.885H85.229c0,0-0.338,3.152-0.543,5.885c-0.034,0.459,0.028,0.886,0.16,1.283
				C88.323,141.44,93.388,141.454,96.364,143.979z"/>
		</g>
	</g>
	<g>
		<path style="opacity:0.8;fill:#B2B2B2;" d="M111.142,165.461c-3.216-14.691-6.358-26.384-6.358-26.384
			c-1.459-1.043-4.504-0.522-4.504-0.522c1.193,3.727,1.043,11.702,1.043,11.702c-8.05,1.565-20.87-0.745-20.87-0.745
			c0.298-2.832,3.047-11.423,3.047-11.423c-0.306-0.536-4.378,0.612-4.627,0.986c-4.788,7.171-8.2,14.871-10.631,21.973
			C82.415,163.572,96.765,164.801,111.142,165.461z"/>
		<g>
			<path style="fill:#5EC1DB;" d="M75.996,139.545c0.292-0.437,5.06-1.782,5.418-1.154c0,0-3.219,10.057-3.568,13.374
				c0,0,15.01,2.705,24.435,0.873c0,0,0.175-9.338-1.222-13.701c0,0,3.565-0.611,5.273,0.611c0,0,8.301,30.881,12.727,58.169
				c-19.458,13.138-51.199,8.547-62.305-1.647C56.755,196.069,59.033,164.95,75.996,139.545z"/>
			<path style="fill:#2A9BB5;" d="M89.514,206.284c-13.799,0.001-26.859-4.155-33.08-9.866c-0.107-0.098-0.163-0.239-0.153-0.384
				c0.023-0.313,2.483-31.536,19.32-56.753l0,0c0.432-0.648,4.105-1.55,5.332-1.528c0.168,0.006,0.678,0.024,0.894,0.402
				c0.066,0.116,0.08,0.254,0.04,0.38c-0.031,0.096-2.946,9.231-3.491,12.837c2.516,0.417,15.1,2.36,23.436,0.869
				c0.013-1.8-0.007-9.42-1.204-13.161c-0.042-0.131-0.025-0.274,0.046-0.392c0.071-0.117,0.19-0.198,0.326-0.222
				c0.154-0.024,3.782-0.629,5.63,0.693c0.089,0.063,0.154,0.157,0.182,0.263c0.084,0.309,8.359,31.216,12.737,58.216
				c0.03,0.183-0.049,0.366-0.202,0.469C110.707,203.929,99.901,206.284,89.514,206.284z M57.248,195.875
				c10.8,9.663,41.671,14.643,61.295,1.616c-4.212-25.829-11.95-55.125-12.622-57.648c-1.188-0.728-3.273-0.612-4.248-0.508
				c1.232,4.551,1.091,12.942,1.084,13.311c-0.005,0.224-0.164,0.414-0.384,0.457c-9.404,1.824-24.461-0.845-24.611-0.872
				c-0.245-0.044-0.414-0.27-0.388-0.518c0.313-2.963,2.812-11.012,3.447-13.023c-0.002,0-0.004,0-0.007,0
				c-1.032,0-3.923,0.767-4.448,1.154C60.447,163.713,57.503,192.991,57.248,195.875z M75.996,139.545h0.009H75.996z"/>
		</g>
		<g>
			<path style="fill:#FFBB22;" d="M75.099,157.96c0,1.517-1.23,2.747-2.747,2.747c-1.517,0-2.747-1.23-2.747-2.747
				s1.23-2.747,2.747-2.747C73.869,155.212,75.099,156.443,75.099,157.96z"/>
			<path style="fill:#FFBB22;" d="M106.207,142.699c-0.235-0.954-0.472-1.939-0.564-2.926c-0.034-0.004-0.066-0.011-0.1-0.015
				c-0.82-0.099-1.637-0.163-2.463-0.15c-0.394,0.006-0.782,0.006-1.167-0.014c-0.006,0.193-0.013,0.387-0.01,0.58
				c0,0.023,0.009,0.154,0.008,0.169c0.009,0.076,0.02,0.151,0.032,0.226c0.03,0.19,0.066,0.378,0.1,0.567
				c0.026,0.145,0.046,0.292,0.067,0.438c0.075,0.341,0.127,0.687,0.155,1.033c0.503,0.56,1.225,0.918,2.037,0.918
				c0.747,0,1.422-0.3,1.917-0.783C106.215,142.728,106.211,142.714,106.207,142.699z"/>
			<circle style="fill:#FFBB22;" cx="90.945" cy="160.049" r="2.747"/>
			<circle style="fill:#FFBB22;" cx="67.453" cy="180.312" r="2.747"/>
			<path style="fill:#FFBB22;" d="M109.747,156.533c-0.002-0.004-0.003-0.01-0.005-0.014c-0.017-0.04-0.017-0.08-0.029-0.12
				c-0.428-0.276-0.935-0.44-1.482-0.44c-1.517,0-2.747,1.23-2.747,2.747c0,1.517,1.23,2.747,2.747,2.747
				c1.013,0,1.884-0.557,2.359-1.374C110.21,158.918,109.857,157.759,109.747,156.533z"/>
			<path style="fill:#FFBB22;" d="M83.029,169.567c0,1.517-1.23,2.747-2.747,2.747c-1.517,0-2.747-1.23-2.747-2.747
				s1.23-2.747,2.747-2.747C81.799,166.82,83.029,168.05,83.029,169.567z"/>
			<path style="fill:#FFBB22;" d="M79.748,141.46c0.161-0.463,0.364-0.908,0.549-1.362c0.092-0.226,0.18-0.454,0.255-0.686
				c0.017-0.052,0.056-0.293,0.095-0.364c0.004-0.033,0.009-0.066,0.011-0.099c0.006-0.064,0.022-0.124,0.035-0.185
				c-0.013,0.002-0.025,0.003-0.038,0.005c-1.197,0.178-2.381,0.422-3.558,0.701c-0.074,0.248-0.126,0.506-0.126,0.778
				c0,1.375,1.013,2.503,2.331,2.705C79.435,142.452,79.576,141.952,79.748,141.46z"/>
			<path style="fill:#FFBB22;" d="M93.434,182.227c0,1.517-1.23,2.747-2.747,2.747c-1.517,0-2.747-1.23-2.747-2.747
				c0-1.517,1.23-2.747,2.747-2.747C92.204,179.48,93.434,180.71,93.434,182.227z"/>
			<path style="fill:#FFBB22;" d="M59.247,185.669c-0.027,1.096-0.558,2.239-0.749,3.215c-0.135,0.687-0.255,1.399-0.371,2.117
				c0.11,0.013,0.219,0.033,0.333,0.033c1.517,0,2.747-1.23,2.747-2.747C61.207,187.046,60.378,186.009,59.247,185.669z"/>
			<circle style="fill:#FFBB22;" cx="101.124" cy="170.975" r="2.747"/>
			<path style="fill:#FFBB22;" d="M80.006,193.097c0,1.517-1.23,2.747-2.747,2.747c-1.517,0-2.747-1.23-2.747-2.747
				c0-1.517,1.23-2.747,2.747-2.747C78.776,190.35,80.006,191.58,80.006,193.097z"/>
			<path style="fill:#FFBB22;" d="M64.678,164.603c-0.605,1.64-1.177,3.291-1.717,4.953c0.036,0.002,0.07,0.011,0.107,0.011
				c1.517,0,2.747-1.23,2.747-2.747C65.815,165.906,65.364,165.103,64.678,164.603z"/>
			<path style="fill:#FFBB22;" d="M117.873,195.767c-0.278-0.096-0.575-0.15-0.887-0.15c-1.517,0-2.747,1.23-2.747,2.747
				c0,0.475,0.132,0.915,0.344,1.305c1.163-0.564,2.375-1.025,3.549-1.566C118.024,197.327,117.949,196.546,117.873,195.767z"/>
			<circle style="fill:#FFBB22;" cx="102.737" cy="195.616" r="2.747"/>
			<path style="fill:#FFBB22;" d="M64.986,200.279c0.121,0.08,0.242,0.16,0.366,0.236c0.039,0.024,0.155,0.091,0.22,0.131
				c0.26,0.13,0.529,0.248,0.792,0.367c0.683,0.309,1.374,0.6,2.072,0.875c0.074-0.248,0.125-0.506,0.125-0.778
				c0-1.517-1.23-2.747-2.747-2.747c-0.912,0-1.714,0.449-2.213,1.133C64.093,199.691,64.549,199.993,64.986,200.279z"/>
			<path style="fill:#FFBB22;" d="M91.277,205.266c0.443-0.014,0.776-0.03,1.132-0.064c-0.029-1.492-1.243-2.694-2.742-2.694
				c-1.499,0-2.714,1.202-2.742,2.695c0.046,0.01,0.089,0.028,0.133,0.042C88.465,205.26,89.871,205.309,91.277,205.266z"/>
			<path style="fill:#FFBB22;" d="M115.212,181.304c0,1.517-1.23,2.747-2.747,2.747s-2.747-1.23-2.747-2.747
				c0-1.517,1.23-2.747,2.747-2.747S115.212,179.787,115.212,181.304z"/>
		</g>
		<path style="opacity:0.5;fill:#B2B2B2;" d="M106.334,139.547c-1.708-1.222-5.273-0.611-5.273-0.611
			c1.396,4.363,1.222,13.701,1.222,13.701c-0.662,0.129-2.063,0.319-2.063,0.319c20.439,35.593-17.241,54.324-42.742,37.178
			c-0.557,3.715-0.722,5.935-0.722,5.935c11.106,10.194,42.847,14.785,62.305,1.647
			C114.634,170.428,106.334,139.547,106.334,139.547z"/>
	</g>
	<g>
		<g>
			<g>
				<path style="fill:#333333;" d="M182.224,105.527c-13.712-85.937-63.66-91.083-63.66-91.083c2.186-0.475,7.795-3.992,4.848-6.179
					c-3.525-2.615-7.605,4.753-7.605,4.753c-0.38-4.658-3.327-7.605-4.848-6.179c-1.521,1.426,1.699,5.927,1.699,5.927
					C14.057-3.929,5.16,109.063,5.16,109.063c5.551,2.922,16.216,4.383,16.216,4.383l2.045-6.72l1.461,8.035
					c6.866,2.63,18.842,3.391,18.842,3.391h0.001C31.538,102.265,30.87,82.5,30.87,82.5s4.616-2.318,9.868-3.705
					c0,0-0.081-10.07,2.991-16.214c0,0-1.09,7.036,0,12.882c0,0,13.909-7.097,34.485-10.702c0,0-2.378-11.495,5.648-22.395
					c0,0-1.982,8.324,0,22.197c0,0,16.35-1.486,28.143,0.297c0,0,5.549-10.306,5.45-20.413c0,0,5.747,8.423,0.595,20.612
					c0,0,18.927,3.27,26.557,8.423c0,0,0.892-3.766-0.198-11.198c0,0,3.766,5.054,4.063,12.882l8.027,5.994
					c0,0-3.69,24.633-23.837,41.399c14.264-2.216,28.231-8.513,28.231-8.513l-0.138-10.448l4.132,9.228
					C176.042,109.796,182.224,105.527,182.224,105.527z"/>
				<path style="fill:#1E1E1E;" d="M132.661,123.034c-0.185,0-0.355-0.107-0.433-0.279c-0.087-0.195-0.034-0.424,0.13-0.561
					c18.628-15.501,23.135-38.07,23.624-40.827l-7.794-5.821c-0.115-0.085-0.186-0.219-0.191-0.363
					c-0.183-4.82-1.725-8.595-2.832-10.715c0.631,5.948-0.062,8.982-0.096,9.122c-0.036,0.152-0.144,0.277-0.29,0.333
					c-0.145,0.055-0.309,0.039-0.439-0.049c-7.458-5.037-26.183-8.315-26.372-8.348c-0.143-0.025-0.266-0.114-0.336-0.241
					c-0.07-0.127-0.077-0.279-0.021-0.412c3.724-8.806,1.609-15.659,0.277-18.597c-0.51,9.501-5.412,18.711-5.465,18.81
					c-0.095,0.175-0.286,0.276-0.49,0.244c-11.599-1.754-27.865-0.309-28.029-0.294c-0.237,0.014-0.477-0.155-0.513-0.406
					c-1.393-9.748-0.824-16.844-0.363-20.202c-6.344,10.042-4.372,20.132-4.35,20.238c0.026,0.125,0,0.256-0.072,0.363
					c-0.072,0.106-0.184,0.178-0.311,0.2c-20.271,3.552-34.212,10.587-34.35,10.658c-0.133,0.068-0.291,0.069-0.426,0.003
					c-0.134-0.066-0.23-0.191-0.257-0.339c-0.611-3.276-0.554-6.874-0.377-9.462c-1.705,5.747-1.674,12.62-1.673,12.703
					c0.002,0.217-0.144,0.407-0.353,0.463c-4.418,1.167-8.429,3.022-9.499,3.535c0.153,2.555,1.611,20.562,12.741,35.073
					c0.11,0.144,0.129,0.338,0.049,0.5c-0.08,0.161-0.245,0.264-0.426,0.264c-0.101,0-12.149-0.795-19.012-3.423
					c-0.155-0.059-0.268-0.195-0.298-0.358l-1.111-6.105l-1.473,4.844c-0.068,0.224-0.293,0.36-0.519,0.332
					c-0.44-0.06-10.813-1.506-16.374-4.433c-0.169-0.088-0.267-0.268-0.252-0.457c0.043-0.547,4.709-54.93,40.03-82.47
					C62.499,12.689,85.021,7.834,111.664,12.12c-0.925-1.504-2.382-4.36-1.03-5.628c0.539-0.506,1.246-0.625,1.987-0.339
					c1.391,0.537,2.917,2.545,3.479,5.492c0.988-1.471,2.893-3.885,4.994-4.341c0.94-0.203,1.812-0.008,2.6,0.578
					c1.048,0.777,1.111,1.671,0.979,2.284c-0.351,1.628-2.488,3.228-4.305,4.108c3.965,0.833,14.125,3.749,25.19,13.121
					c23.586,19.978,33.213,53.474,37.135,78.055c0.029,0.181-0.049,0.362-0.199,0.466c-0.062,0.044-6.379,4.351-17.485,7.367
					c-0.229,0.061-0.462-0.051-0.558-0.264l-3.194-7.131l0.108,8.15c0.003,0.189-0.108,0.362-0.28,0.44
					c-0.14,0.063-14.189,6.348-28.352,8.549C132.709,123.032,132.685,123.034,132.661,123.034z M148.936,74.92l7.846,5.859
					c0.14,0.105,0.212,0.277,0.186,0.451c-0.036,0.242-3.778,23.926-22.701,40.579c12.339-2.191,24.179-7.214,26.145-8.071
					l-0.133-10.133c-0.003-0.226,0.153-0.422,0.373-0.47c0.222-0.05,0.443,0.065,0.535,0.27l3.966,8.855
					c9.483-2.628,15.316-6.167,16.554-6.962c-3.928-24.395-13.496-57.469-36.762-77.177c-13.928-11.797-26.306-13.192-26.429-13.205
					c-0.233-0.023-0.413-0.212-0.426-0.446c-0.013-0.233,0.145-0.441,0.373-0.49c1.566-0.34,4.928-2.368,5.283-4.012
					c0.069-0.32,0.08-0.804-0.616-1.321c-0.569-0.421-1.167-0.558-1.832-0.413c-2.576,0.558-5.05,4.97-5.074,5.014
					c-0.102,0.184-0.311,0.279-0.516,0.234c-0.204-0.044-0.356-0.216-0.373-0.425c-0.256-3.127-1.754-5.514-3.055-6.015
					c-0.399-0.155-0.726-0.109-0.995,0.145c-0.918,0.861,0.79,3.945,1.761,5.304c0.112,0.157,0.119,0.366,0.017,0.529
					c-0.102,0.163-0.293,0.253-0.482,0.216c-26.843-4.546-49.476,0.189-67.28,14.071c-33.602,26.199-39.208,77-39.638,81.481
					c4.87,2.444,13.434,3.836,15.379,4.13l1.926-6.33c0.064-0.21,0.257-0.353,0.483-0.336c0.218,0.012,0.4,0.174,0.44,0.389
					l1.413,7.771c5.567,2.058,14.406,2.937,17.413,3.188c-11.532-15.68-12.313-34.887-12.319-35.082
					c-0.006-0.185,0.096-0.357,0.262-0.441c0.045-0.022,4.513-2.252,9.607-3.645c0.016-1.901,0.248-10.48,3.04-16.062
					c0.105-0.21,0.345-0.311,0.57-0.24c0.223,0.071,0.361,0.294,0.325,0.525c-0.01,0.068-0.99,6.537-0.108,12.106
					c2.82-1.348,15.729-7.196,33.579-10.384c-0.338-2.32-1.321-12.606,5.81-22.292c0.134-0.182,0.379-0.245,0.582-0.148
					c0.205,0.095,0.314,0.321,0.263,0.54c-0.02,0.082-1.894,8.232-0.054,21.576c2.694-0.217,16.879-1.246,27.468,0.289
					c0.887-1.748,5.329-10.963,5.242-19.89c-0.002-0.21,0.133-0.395,0.333-0.457c0.197-0.064,0.417,0.012,0.534,0.185
					c0.058,0.085,5.662,8.521,0.865,20.516c3.21,0.586,18.306,3.518,25.547,7.997c0.192-1.383,0.482-4.863-0.321-10.34
					c-0.032-0.215,0.087-0.424,0.288-0.507c0.202-0.082,0.432-0.02,0.563,0.155C144.946,62.209,148.576,67.166,148.936,74.92z"/>
			</g>
			<path style="fill:#333333;" d="M182.175,105.576c-13.712-85.937-63.66-91.083-63.66-91.083c2.186-0.475,7.795-3.992,4.848-6.179
				c-3.525-2.615-7.605,4.753-7.605,4.753c-0.38-4.658-3.327-7.605-4.848-6.179c-1.521,1.426,1.699,5.927,1.699,5.927
				C14.008-3.88,5.11,109.112,5.11,109.112c5.552,2.922,16.216,4.383,16.216,4.383l2.045-6.72l1.461,8.035
				c6.866,2.63,18.842,3.391,18.842,3.391h0.001c-12.186-15.887-12.854-35.651-12.854-35.651s4.616-2.318,9.868-3.705
				c0,0-0.081-10.071,2.991-16.214c0,0-1.09,7.036,0,12.882c0,0,13.909-7.097,34.485-10.702c0,0-2.378-11.495,5.648-22.395
				c0,0-1.982,8.324,0,22.197c0,0,16.35-1.486,28.143,0.297c0,0,5.549-10.306,5.45-20.413c0,0,5.747,8.423,0.595,20.612
				c0,0,18.927,3.27,26.557,8.423c0,0,0.892-3.766-0.198-11.198c0,0,3.766,5.054,4.063,12.882l8.027,5.994
				c0,0-3.69,24.633-23.838,41.399c14.264-2.216,28.231-8.513,28.231-8.513l-0.138-10.448l4.132,9.228
				C175.992,109.845,182.175,105.576,182.175,105.576z M152.705,57.505c3.898,7.773,3.744,17.84,3.744,17.84
				c-2.807-2.549-6.004-4.97-6.004-4.97c-1.42-8.92-9.539-15.419-9.539-15.419c3.058,6.117,1.599,13.38,1.599,13.38
				c-8.595-4.587-22.156-5.989-22.156-5.989c4.914-17.087-5.665-23.447-5.665-23.447c2.449,10.577-3.979,22.682-3.979,22.682
				c-11.086-2.294-24.212-1.185-24.212-1.185c-2.931-10.997,0.143-23.752,0.143-23.752c-12.064,9.402-10.975,26.339-10.975,26.339
				c-17.968,0.764-29.436,8.793-29.436,8.793c-0.892-8.538,0-15.801,0-15.801c-8.028,7.518-7.391,20.24-7.391,20.24l-8.014,2.417
				c0.142-15.7,8.014-24.95,8.014-24.95c-11.341,9.685-11.063,28.213-11.063,28.213c-0.567,6.744-7.819,3.653-6.87-11.24
				c-5.838,9.991-7.547,8.106-4.719,0C28.428,35.55,57.096,12.59,97.532,12.59c32.051,0,55.753,19.653,64.661,38.805
				c8.908,19.152-0.025,31.326-1.337,24.771C158.054,62.173,152.705,57.505,152.705,57.505z"/>
			<g>
				<path style="fill:#FFBB22;" d="M41.819,51.346c34.063-27.223,74.261-24.674,100.735-0.778c0,0-13.68-26.445-49.671-26.445
					C56.891,24.123,41.819,51.346,41.819,51.346z"/>
				<path style="fill:#E59900;" d="M41.819,51.822c-0.109,0-0.218-0.037-0.306-0.112c-0.174-0.146-0.219-0.394-0.109-0.593
					c0.152-0.275,15.623-27.468,51.479-27.468c35.865,0,49.956,26.435,50.094,26.702c0.105,0.204,0.05,0.454-0.132,0.594
					c-0.183,0.142-0.439,0.132-0.609-0.023c-27.841-25.13-68.076-24.812-100.12,0.797C42.028,51.787,41.924,51.822,41.819,51.822z
					 M92.882,24.598c-29.022,0-44.469,18.075-49.118,24.637c31.114-23.473,69.277-23.89,96.69-1.113
					C135.831,41.455,121.321,24.598,92.882,24.598z"/>
			</g>
			<g>
				<path style="opacity:0.4;fill:#333333;" d="M56.899,48.939c-4.742,10.207-2.68,21.656,0,11.911
					c2.68-9.745,1.368-4.557,2.193,0.853s0.399-6.28,5.56-12.763c0,0-2.602,8.013,0,12.642c2.602,4.629,1.019-2.625,6.135-12.642
					c5.116-10.016,0-10.016-2.924-5.387c-2.924,4.629-2.737,2.877-1.804,0.478c0.933-2.399-2.63,1.9-4.999,6.732
					c-2.368,4.832-2.333,1.266-0.333-2.399C62.725,44.696,60.47,41.251,56.899,48.939z"/>
				<path style="opacity:0.4;fill:#333333;" d="M92.299,41.644c-3.618,10.387,0.169,23.197,1.659,12.99
					c1.491-10.207,0.819-4.755,2.449,1.274c1.631,6.029-0.451-6.786,4.131-13.047c0,0-1.649,8.33,1.761,13.787
					s0.717-2.703,4.759-12.823c4.042-10.12-1.395-10.924-3.858-6.335c-2.462,4.589-2.509,2.708-1.851,0.238
					s-2.531,1.659-4.375,6.557c-1.844,4.897-2.303,1.015-0.688-2.669C97.901,37.932,95.023,33.82,92.299,41.644z"/>
				<path style="opacity:0.4;fill:#333333;" d="M134.42,49.483c3.448,8.673,1.949,18.402,0,10.121
					c-1.949-8.281-0.994-3.872-1.594,0.725c-0.6,4.597-0.29-5.336-4.043-10.845c0,0,1.892,6.808,0,10.742
					c-1.892,3.933-0.741-2.231-4.461-10.742c-3.721-8.511,0-8.511,2.126-4.578c2.126,3.933,1.991,2.445,1.312,0.406
					c-0.679-2.039,1.913,1.615,3.635,5.72c1.722,4.105,1.696,1.076,0.242-2.039C130.183,45.877,131.823,42.95,134.42,49.483z"/>
			</g>
			<path style="opacity:0.4;fill:#333333;" d="M29.679,46.603c14.664-20.699,36.809-29.242,45.269-29.836
				c0,0-18.473,4.988-28.611,16.95c0,0,6.792-5.576,15.916-7.705c0,0-24.229,13.28-34.26,44.2c0,0-0.816-10.036,8.853-26.723
				C39.1,39.599,22.931,56.129,29.679,46.603z"/>
			<path style="opacity:0.4;fill:#333333;" d="M117.843,17.084c23.711,9.014,37.527,28.314,40.221,36.356
				c0,0-9.455-16.636-23.574-23.455c0,0,7.099,5.18,11.444,13.48c0,0-18.924-20.132-51.37-22.102c0,0,9.512-3.303,28.088,1.88
				C126.982,24.451,106.931,12.936,117.843,17.084z"/>
		</g>
		<g>
			<g>
				<path style="fill:#FBD0B4;" d="M156.498,81.159c0,0-7.988,53.43-64.785,56.468C32.826,140.778,30.87,82.5,30.87,82.5
					s4.616-2.318,9.868-3.705c0,0-0.081-10.07,2.991-16.214c0,0-1.09,7.036,0,12.882c0,0,13.909-7.097,34.485-10.702
					c0,0-2.378-11.495,5.648-22.395c0,0-1.982,8.324,0,22.197c0,0,16.35-1.486,28.143,0.297c0,0,5.549-10.306,5.45-20.413
					c0,0,5.748,8.423,0.595,20.612c0,0,18.927,3.27,26.557,8.423c0,0,0.892-3.766-0.198-11.198c0,0,3.766,5.054,4.063,12.882
					L156.498,81.159z"/>
				<path style="fill:#C68D71;" d="M87.188,138.226c-15.54,0-28.287-4.473-37.945-13.326C31.47,108.61,30.404,82.775,30.395,82.516
					c-0.006-0.186,0.096-0.357,0.262-0.441c0.045-0.022,4.513-2.252,9.607-3.645c0.016-1.901,0.248-10.48,3.04-16.062
					c0.105-0.21,0.345-0.311,0.57-0.24c0.223,0.071,0.361,0.294,0.325,0.525c-0.01,0.068-0.99,6.537-0.108,12.106
					c2.82-1.348,15.729-7.196,33.579-10.384c-0.338-2.321-1.321-12.606,5.81-22.292c0.134-0.182,0.379-0.245,0.582-0.148
					c0.205,0.095,0.314,0.321,0.263,0.54c-0.02,0.082-1.894,8.232-0.054,21.576c2.694-0.217,16.879-1.246,27.468,0.289
					c0.887-1.748,5.329-10.963,5.242-19.89c-0.002-0.21,0.133-0.395,0.333-0.457c0.197-0.064,0.417,0.012,0.534,0.185
					c0.058,0.085,5.662,8.521,0.865,20.516c3.21,0.586,18.306,3.518,25.547,7.997c0.192-1.383,0.482-4.863-0.321-10.339
					c-0.032-0.215,0.087-0.424,0.288-0.507c0.202-0.082,0.432-0.021,0.563,0.155c0.156,0.209,3.786,5.166,4.146,12.92l7.846,5.859
					c0.14,0.105,0.212,0.277,0.186,0.451c-0.02,0.134-2.117,13.619-11.167,27.287c-8.36,12.625-24.525,28.005-54.062,29.585
					C90.197,138.185,88.678,138.226,87.188,138.226z M31.36,82.789c0.176,2.943,2.09,26.353,18.53,41.416
					c10.39,9.52,24.438,13.877,41.798,12.948c29.142-1.559,45.08-16.719,53.32-29.161c8.221-12.414,10.626-24.644,10.974-26.626
					l-7.795-5.821c-0.115-0.085-0.186-0.219-0.191-0.363c-0.183-4.82-1.725-8.595-2.832-10.714c0.631,5.947-0.062,8.981-0.096,9.121
					c-0.036,0.152-0.144,0.277-0.29,0.333c-0.145,0.055-0.309,0.039-0.439-0.049c-7.457-5.036-26.183-8.315-26.372-8.348
					c-0.143-0.025-0.266-0.114-0.336-0.241c-0.07-0.127-0.077-0.279-0.021-0.412c3.733-8.828,1.611-15.674,0.278-18.605
					c-0.509,9.504-5.413,18.719-5.466,18.817c-0.095,0.175-0.286,0.276-0.49,0.244c-11.599-1.754-27.865-0.309-28.029-0.294
					c-0.254,0.008-0.478-0.156-0.513-0.406c-1.393-9.748-0.824-16.845-0.363-20.202c-6.354,10.053-4.372,20.131-4.35,20.238
					c0.026,0.126,0,0.257-0.071,0.364c-0.072,0.106-0.185,0.178-0.312,0.2c-20.271,3.552-34.212,10.587-34.35,10.658
					c-0.133,0.068-0.291,0.069-0.426,0.003c-0.134-0.066-0.23-0.191-0.257-0.339c-0.611-3.275-0.554-6.873-0.377-9.461
					c-1.703,5.746-1.674,12.619-1.673,12.702c0.002,0.217-0.144,0.407-0.353,0.463C36.438,80.422,32.429,82.276,31.36,82.789z"/>
			</g>
			<g>
				<path style="fill:#FBD0B4;" d="M156.498,81.159c0,0-7.988,53.43-64.785,56.468C32.826,140.778,30.87,82.5,30.87,82.5
					s4.616-2.318,9.868-3.705c0,0-0.081-10.07,2.991-16.214c0,0-1.09,7.036,0,12.882c0,0,13.909-7.097,34.485-10.702
					c0,0-2.378-11.495,5.648-22.395c0,0-1.982,8.324,0,22.197c0,0,16.35-1.486,28.143,0.297c0,0,5.549-10.306,5.45-20.413
					c0,0,5.748,8.423,0.595,20.612c0,0,18.927,3.27,26.557,8.423c0,0,0.892-3.766-0.198-11.198c0,0,3.766,5.054,4.063,12.882
					L156.498,81.159z"/>
				<path style="fill:#C68D71;" d="M87.188,138.226c-15.54,0-28.287-4.473-37.945-13.326C31.47,108.61,30.404,82.775,30.395,82.516
					c-0.006-0.186,0.096-0.357,0.262-0.441c0.045-0.022,4.513-2.252,9.607-3.645c0.016-1.901,0.248-10.48,3.04-16.062
					c0.105-0.21,0.345-0.311,0.57-0.24c0.223,0.071,0.361,0.294,0.325,0.525c-0.01,0.068-0.99,6.537-0.108,12.106
					c2.82-1.348,15.729-7.196,33.579-10.384c-0.338-2.321-1.321-12.606,5.81-22.292c0.134-0.182,0.379-0.245,0.582-0.148
					c0.205,0.095,0.314,0.321,0.263,0.54c-0.02,0.082-1.894,8.232-0.054,21.576c2.694-0.217,16.879-1.246,27.468,0.289
					c0.887-1.748,5.329-10.963,5.242-19.89c-0.002-0.21,0.133-0.395,0.333-0.457c0.197-0.064,0.417,0.012,0.534,0.185
					c0.058,0.085,5.662,8.521,0.865,20.516c3.21,0.586,18.306,3.518,25.547,7.997c0.192-1.383,0.482-4.863-0.321-10.339
					c-0.032-0.215,0.087-0.424,0.288-0.507c0.202-0.082,0.432-0.021,0.563,0.155c0.156,0.209,3.786,5.166,4.146,12.92l7.846,5.859
					c0.14,0.105,0.212,0.277,0.186,0.451c-0.02,0.134-2.117,13.619-11.167,27.287c-8.36,12.625-24.525,28.005-54.062,29.585
					C90.197,138.185,88.678,138.226,87.188,138.226z M31.36,82.789c0.176,2.943,2.09,26.353,18.53,41.416
					c10.39,9.52,24.438,13.877,41.798,12.948c29.142-1.559,45.08-16.719,53.32-29.161c8.221-12.414,10.626-24.644,10.974-26.626
					l-7.795-5.821c-0.115-0.085-0.186-0.219-0.191-0.363c-0.183-4.82-1.725-8.595-2.832-10.714c0.631,5.947-0.062,8.981-0.096,9.121
					c-0.036,0.152-0.144,0.277-0.29,0.333c-0.145,0.055-0.309,0.039-0.439-0.049c-7.457-5.036-26.183-8.315-26.372-8.348
					c-0.143-0.025-0.266-0.114-0.336-0.241c-0.07-0.127-0.077-0.279-0.021-0.412c3.733-8.828,1.611-15.674,0.278-18.605
					c-0.509,9.504-5.413,18.719-5.466,18.817c-0.095,0.175-0.286,0.276-0.49,0.244c-11.599-1.754-27.865-0.309-28.029-0.294
					c-0.254,0.008-0.478-0.156-0.513-0.406c-1.393-9.748-0.824-16.845-0.363-20.202c-6.354,10.053-4.372,20.131-4.35,20.238
					c0.026,0.126,0,0.257-0.071,0.364c-0.072,0.106-0.185,0.178-0.312,0.2c-20.271,3.552-34.212,10.587-34.35,10.658
					c-0.133,0.068-0.291,0.069-0.426,0.003c-0.134-0.066-0.23-0.191-0.257-0.339c-0.611-3.275-0.554-6.873-0.377-9.461
					c-1.703,5.746-1.674,12.619-1.673,12.702c0.002,0.217-0.144,0.407-0.353,0.463C36.438,80.422,32.429,82.276,31.36,82.789z"/>
			</g>
			<g>
				<g>
					<path style="fill:#FBD0B4;" d="M23.261,87.541c-8.744,4.897-3.281,23.641,13.585,18.954c-3.37-7.543-4.85-14.714-5.492-19.22
						C29.374,86.428,26.381,85.795,23.261,87.541z"/>
					<path style="fill:#C68D71;" d="M31.73,107.716c-6.471,0-10.495-3.855-12.114-7.787c-2.112-5.127-0.676-10.511,3.414-12.802l0,0
						c3.291-1.843,6.446-1.172,8.512-0.288c0.152,0.066,0.26,0.206,0.283,0.37c0.657,4.61,2.137,11.665,5.455,19.093
						c0.057,0.126,0.056,0.271-0.004,0.396c-0.058,0.125-0.169,0.218-0.302,0.255C35.076,107.481,33.328,107.716,31.73,107.716z
						 M23.493,87.956c-4.152,2.325-4.652,7.601-2.999,11.611c2.901,7.043,10.136,7.976,15.693,6.611
						c-3.143-7.197-4.595-14.001-5.264-18.566C29.054,86.864,26.321,86.372,23.493,87.956L23.493,87.956z"/>
				</g>
				<g>
					<path style="fill:#C68D71;" d="M23.897,97.586c-0.35-0.64-0.461-1.418-0.338-2.179c0.133-0.764,0.551-1.472,1.121-2.011
						c1.123-1.092,2.931-1.525,4.455-0.885c0.752,0.316,1.39,0.861,1.842,1.502c0.445,0.649,0.743,1.366,0.922,2.096
						c0.358,1.465,0.315,2.956,0.064,4.381c-0.116-1.443-0.333-2.864-0.775-4.168c-0.454-1.282-1.236-2.472-2.417-2.934
						c-1.147-0.504-2.582-0.236-3.608,0.565C24.115,94.737,23.55,96.156,23.897,97.586z"/>
					<path style="fill:#C68D71;" d="M27.825,98.241c-0.233-0.586-0.149-1.358,0.308-1.92c0.437-0.572,1.196-0.909,1.958-0.833
						c0.776,0.072,1.428,0.638,1.705,1.269c0.295,0.635,0.287,1.311,0.159,1.923c-0.263-0.583-0.465-1.128-0.796-1.544
						c-0.331-0.402-0.727-0.676-1.176-0.704c-0.442-0.055-0.918,0.094-1.314,0.396C28.269,97.136,27.992,97.626,27.825,98.241z"/>
				</g>
				<path style="opacity:0.8;fill:#878787;" d="M23.261,87.541c-8.744,4.897-3.281,23.641,13.585,18.954
					c-3.37-7.543-4.85-14.714-5.492-19.22C29.374,86.428,26.381,85.795,23.261,87.541z"/>
			</g>
			<g>
				<g>
					<path style="fill:#FBD0B4;" d="M167.695,85.84c-3.647-9.24-11.197-4.68-11.197-4.68s-1.206,8.056-6.004,18.088
						C159.318,102.793,171.002,94.217,167.695,85.84z"/>
					<path style="fill:#C68D71;" d="M154.856,100.535c-1.573,0-3.116-0.276-4.539-0.847c-0.122-0.049-0.218-0.146-0.265-0.268
						c-0.047-0.122-0.043-0.259,0.014-0.378c4.707-9.844,5.951-17.874,5.964-17.954c0.02-0.14,0.103-0.263,0.224-0.336
						c0.134-0.081,3.317-1.97,6.669-0.835c2.256,0.762,4.011,2.695,5.215,5.746l0,0c1.372,3.475,0.342,7.389-2.755,10.468
						C162.525,98.971,158.607,100.535,154.856,100.535z M151.144,98.984c5.089,1.777,10.559-0.534,13.568-3.526
						c2.861-2.844,3.788-6.286,2.541-9.444l0,0c-1.098-2.778-2.657-4.527-4.636-5.195c-2.509-0.849-5.001,0.287-5.689,0.647
						C156.69,82.846,155.293,90.156,151.144,98.984z"/>
				</g>
				<g>
					<path style="fill:#C68D71;" d="M163.309,91.799c0.347-1.431-0.218-2.849-1.267-3.633c-1.026-0.801-2.461-1.069-3.608-0.565
						c-1.18,0.462-1.963,1.652-2.417,2.934c-0.442,1.304-0.659,2.725-0.775,4.168c-0.251-1.425-0.293-2.916,0.064-4.381
						c0.179-0.73,0.477-1.447,0.922-2.096c0.452-0.641,1.09-1.186,1.842-1.502c1.524-0.641,3.332-0.208,4.455,0.885
						c0.57,0.539,0.989,1.247,1.121,2.011C163.77,90.38,163.658,91.159,163.309,91.799z"/>
					<path style="fill:#C68D71;" d="M159.381,92.453c-0.167-0.614-0.444-1.105-0.845-1.412c-0.396-0.303-0.871-0.451-1.314-0.397
						c-0.449,0.028-0.846,0.303-1.176,0.705c-0.331,0.415-0.533,0.961-0.796,1.544c-0.128-0.611-0.137-1.288,0.159-1.923
						c0.277-0.631,0.929-1.197,1.705-1.269c0.763-0.076,1.522,0.261,1.959,0.833C159.531,91.095,159.614,91.867,159.381,92.453z"/>
				</g>
				<path style="opacity:0.8;fill:#878787;" d="M167.695,85.84c-3.647-9.24-11.197-4.68-11.197-4.68s-1.206,8.056-6.004,18.088
					C159.318,102.793,171.002,94.217,167.695,85.84z"/>
			</g>
			<g>
				<g>
					<g>
						<path style="fill:#3F1C08;" d="M64.793,92.875c0.066,2.532-1.937,4.641-4.473,4.71c-2.536,0.063-4.644-1.939-4.71-4.474
							c-0.065-2.538,1.937-4.648,4.473-4.713C62.617,88.333,64.726,90.336,64.793,92.875z"/>
						<path style="fill:#FFFFFF;" d="M60.348,90.596c0.023,0.884-0.675,1.618-1.557,1.645c-0.886,0.021-1.621-0.676-1.645-1.562
							c-0.022-0.882,0.677-1.619,1.559-1.642C59.59,89.014,60.325,89.714,60.348,90.596z"/>
					</g>
					<path style="fill:#3F1C08;" d="M57.058,79.319c-1.364,0.796-2.332,1.737-2.974,3.192c-0.28,0.632-0.906,2.178-0.138,2.587
						c0.098,0.056,0.29-0.143,0.302-0.232c0.102-0.795,0.476-1.432,0.901-2.097c1.185-1.857,2.339-2.674,4.536-2.248
						c1.938,0.38,3.394,1.698,4.585,3.178c0.131,0.163,0.619-0.247,0.544-0.42C63.381,80.097,60.745,77.173,57.058,79.319z"/>
				</g>
				<g>
					<g>
						<path style="fill:#3F1C08;" d="M124.499,91.273c-0.263,2.523-2.522,4.354-5.045,4.088c-2.524-0.263-4.355-2.523-4.093-5.045
							c0.269-2.524,2.525-4.357,5.051-4.093C122.934,86.489,124.764,88.75,124.499,91.273z"/>
						<path style="fill:#FFFFFF;" d="M120.389,88.438c-0.092,0.879-0.88,1.518-1.759,1.426c-0.881-0.092-1.517-0.88-1.424-1.759
							c0.091-0.879,0.878-1.517,1.756-1.424C119.84,86.77,120.48,87.558,120.389,88.438z"/>
					</g>
					<path style="fill:#3F1C08;" d="M118.846,76.61c-1.454,0.608-2.537,1.419-3.362,2.775c-0.359,0.592-1.18,2.043-0.473,2.55
						c0.092,0.068,0.306-0.104,0.329-0.191c0.206-0.775,0.658-1.362,1.165-1.965c1.417-1.683,2.668-2.347,4.789-1.637
						c1.872,0.626,3.143,2.124,4.133,3.743c0.11,0.183,0.648-0.163,0.593-0.341C125.017,78.202,122.78,74.961,118.846,76.61z"/>
				</g>
				<g>
					<g>
						<path style="fill:#F39D91;" d="M77.802,118.373c0,0,16.076,3.524,28.769-4.354c0,0-0.833,12.369-12.526,13.624
							C81.342,129.009,77.802,118.373,77.802,118.373z"/>
					</g>
					<g>
						<path style="fill:#FFFFFF;" d="M94.614,120.642c3.564-0.812,7.198-2.245,9.305-5.16c-8.667,4.231-18.229,3.904-23.019,3.364
							C83.794,122.58,90.521,121.576,94.614,120.642z"/>
						<path style="fill:#EC665E;" d="M93.826,123.615c-2.797,0.592-5.634,1.312-7.823,3.095c2.146,0.846,4.793,1.286,8.042,0.934
							c4.104-0.439,6.866-2.25,8.728-4.414C99.8,122.923,96.811,122.983,93.826,123.615z"/>
					</g>
				</g>
				<path style="opacity:0.8;fill:#878787;" d="M148.471,75.166c-0.297-7.828-4.063-12.882-4.063-12.882
					c1.09,7.432,0.198,11.198,0.198,11.198c-7.63-5.153-26.557-8.423-26.557-8.423c5.153-12.189-0.595-20.612-0.595-20.612
					c0.099,10.108-5.45,20.413-5.45,20.413c-11.792-1.784-28.143-0.297-28.143-0.297c-1.982-13.873,0-22.197,0-22.197
					c-8.027,10.9-5.648,22.395-5.648,22.395c-20.576,3.605-34.485,10.702-34.485,10.702c-1.09-5.846,0-12.882,0-12.882
					c-3.072,6.144-2.991,16.214-2.991,16.214C35.486,80.182,30.87,82.5,30.87,82.5s1.956,58.278,60.843,55.127
					c56.797-3.038,64.785-56.468,64.785-56.468L148.471,75.166z M92.795,133.104c-58.412,1.476-58.412-49.415-58.412-49.415
					c62.772-36.318,118.371-1.739,118.371-1.739C150.96,97.923,133.236,132.082,92.795,133.104z"/>
			</g>
		</g>
	</g>
</g>
</svg>
